<svg width="50" height="40" viewBox="0 0 50 40" fill="none" xmlns="http://www.w3.org/2000/svg">
<path d="M23.9258 0.64492C23.2617 0.86953 22.7148 1.21133 22.2559 1.69961C21.7871 2.19765 0.791012 32.4906 0.449215 33.1547C0.0781217 33.8969 -0.058597 34.8539 0.0683561 35.723C0.302731 37.2172 1.20117 38.4281 2.58789 39.102L3.36914 39.4828L24.7559 39.5121C45.8301 39.5316 46.1523 39.5316 46.7773 39.3461C49.4824 38.5258 50.7812 35.4887 49.4726 33.0375C49.0332 32.2172 28.3789 2.06094 27.9492 1.61172C27.7539 1.40664 27.2656 1.07461 26.875 0.879295C26.2402 0.566795 26.0547 0.527733 25.3125 0.498436C24.6875 0.478905 24.3164 0.517967 23.9258 0.64492ZM25.6934 8.57461C27.3242 8.88711 28.623 10.2836 28.7695 11.8949C28.8184 12.4516 27.6855 26.807 27.5879 26.9242C27.5684 26.934 27.2559 26.8461 26.8848 26.7289C26.3281 26.5336 26.0254 26.4945 25 26.4945C23.9746 26.4945 23.6719 26.5336 23.1152 26.7289C22.7441 26.8461 22.4316 26.934 22.4121 26.9242C22.3144 26.807 21.1816 12.4516 21.2305 11.8949C21.3672 10.3324 22.6758 8.88711 24.2187 8.58437C24.834 8.46719 25.0879 8.46719 25.6934 8.57461ZM25.9766 29.8832C27.207 30.2641 28.125 31.5043 28.125 32.8129C28.125 35.0883 25.9766 36.5922 23.8574 35.8012C23.1055 35.518 22.373 34.7855 22.0898 34.0336C21.1426 31.5238 23.418 29.1117 25.9766 29.8832Z"/>
</svg>
