<svg width="43" height="30" viewBox="0 0 43 30" fill="none" xmlns="http://www.w3.org/2000/svg">
<path fill-rule="evenodd" clip-rule="evenodd" d="M6.61806 10.5281H13.9933C15.1967 10.5281 16.182 11.5098 16.182 12.7132V14.9018H6.61806V10.5281ZM1.58979 29.86H3.6764C4.28162 29.86 4.77424 29.3603 4.77424 28.7622V25.4721H0.488424V28.7622C0.488424 29.3639 0.984566 29.86 1.58979 29.86ZM37.2803 29.86H39.3669C39.9721 29.86 40.4648 29.3603 40.4648 28.7622V25.4721H36.1789V28.7622C36.1825 29.3639 36.6786 29.86 37.2803 29.86ZM-0.00771713 16.2953H0.488424V2.96278C0.488424 2.35755 0.984566 1.86493 1.58627 1.86493H3.67288C4.2781 1.86493 4.77072 2.36107 4.77072 2.96278V16.2953H36.1789V10.0073C36.1789 9.40206 36.6716 8.90944 37.2768 8.90944H39.3634C39.9686 8.90944 40.4612 9.4091 40.4612 10.0073V16.2953H41.2424C41.7878 16.2953 42.2347 16.7421 42.2347 17.2876V22.914C42.2347 23.4594 41.7878 23.9028 41.2424 23.9028H-0.00771713C-0.553121 23.9028 -1 23.4559 -1 22.9105V17.2876C-1 16.7421 -0.553121 16.2953 -0.00771713 16.2953ZM19.5635 0H21.6782C22.0723 0 22.3961 0.323724 22.3961 0.717822V3.20909H24.8873C25.2814 3.20909 25.6051 3.53281 25.6051 3.92691V6.03815C25.6051 6.43225 25.2814 6.75597 24.8873 6.75597H22.3961V9.24724C22.3961 9.64134 22.0723 9.96506 21.6782 9.96506H19.5635C19.1694 9.96506 18.8457 9.64134 18.8457 9.24724V6.75597H16.3579C15.9638 6.75597 15.6401 6.43225 15.6401 6.03815V3.92339C15.6401 3.52929 15.9638 3.20557 16.3579 3.20557H18.8492V0.717822C18.8457 0.323724 19.1659 0 19.5635 0Z"/>
</svg>
