<svg width="16" height="19" viewBox="0 0 16 19" fill="none" xmlns="http://www.w3.org/2000/svg">
<path d="M8 5C8.925 5 9.66667 4.25 9.66667 3.33333C9.66667 3.01667 9.58333 2.725 9.425 2.475L8 0L6.575 2.475C6.41667 2.725 6.33333 3.01667 6.33333 3.33333C6.33333 4.25 7.08333 5 8 5ZM11.8333 13.325L10.9417 12.4333L10.0417 13.325C8.95833 14.4083 7.05833 14.4167 5.96667 13.325L5.075 12.4333L4.16667 13.325C3.625 13.8667 2.9 14.1667 2.13333 14.1667C1.525 14.1667 0.966667 13.975 0.5 13.6583V17.5C0.5 17.9583 0.875 18.3333 1.33333 18.3333H14.6667C15.125 18.3333 15.5 17.9583 15.5 17.5V13.6583C15.0333 13.975 14.475 14.1667 13.8667 14.1667C13.1 14.1667 12.375 13.8667 11.8333 13.325ZM13 7.5H8.83333V5.83333H7.16667V7.5H3C1.61667 7.5 0.5 8.61667 0.5 10V11.2833C0.5 12.1833 1.23333 12.9167 2.13333 12.9167C2.56667 12.9167 2.98333 12.75 3.28333 12.4417L5.06667 10.6667L6.84167 12.4417C7.45833 13.0583 8.53333 13.0583 9.15 12.4417L10.9333 10.6667L12.7083 12.4417C13.0167 12.75 13.425 12.9167 13.8583 12.9167C14.7583 12.9167 15.4917 12.1833 15.4917 11.2833V10C15.5 8.61667 14.3833 7.5 13 7.5Z" fill="#B9B9B9"/>
</svg>
