<svg width="43" height="34" viewBox="0 0 43 34" fill="none" xmlns="http://www.w3.org/2000/svg">
<rect width="43" height="34" rx="7" fill="#151A20"/>
<path d="M13.9 13.2H14.1714C15.2164 13.2 16.0714 14.055 16.0714 15.1V24.6C16.0714 25.645 15.2164 26.5 14.1714 26.5H13.9C12.855 26.5 12 25.645 12 24.6V15.1C12 14.055 12.855 13.2 13.9 13.2V13.2ZM21.5 7.5C22.545 7.5 23.4 8.355 23.4 9.4V24.6C23.4 25.645 22.545 26.5 21.5 26.5C20.455 26.5 19.6 25.645 19.6 24.6V9.4C19.6 8.355 20.455 7.5 21.5 7.5ZM29.1 18.3571C30.145 18.3571 31 19.2121 31 20.2571V24.6C31 25.645 30.145 26.5 29.1 26.5C28.055 26.5 27.2 25.645 27.2 24.6V20.2571C27.2 19.2121 28.055 18.3571 29.1 18.3571V18.3571Z" fill="url(#paint0_linear_2522_4508)"/>
<defs>
<linearGradient id="paint0_linear_2522_4508" x1="21.5" y1="7.5" x2="21.5" y2="26.5" gradientUnits="userSpaceOnUse">
<stop stop-color="#0AA7FF"/>
<stop offset="1" stop-color="#0AFFFF"/>
</linearGradient>
</defs>
</svg>
