<svg width="43" height="43" viewBox="0 0 43 43" fill="none" xmlns="http://www.w3.org/2000/svg">
<rect width="43" height="43" rx="7" fill="#151A20"/>
<path d="M13.9 17.7H14.1714C15.2164 17.7 16.0714 18.555 16.0714 19.6V29.1C16.0714 30.145 15.2164 31 14.1714 31H13.9C12.855 31 12 30.145 12 29.1V19.6C12 18.555 12.855 17.7 13.9 17.7ZM21.5 12C22.545 12 23.4 12.855 23.4 13.9V29.1C23.4 30.145 22.545 31 21.5 31C20.455 31 19.6 30.145 19.6 29.1V13.9C19.6 12.855 20.455 12 21.5 12ZM29.1 22.8571C30.145 22.8571 31 23.7121 31 24.7571V29.1C31 30.145 30.145 31 29.1 31C28.055 31 27.2 30.145 27.2 29.1V24.7571C27.2 23.7121 28.055 22.8571 29.1 22.8571Z" fill="#0FFF0A"/>
</svg>
