<svg width="34" height="34" viewBox="0 0 34 34" fill="none" xmlns="http://www.w3.org/2000/svg">
<path d="M16.65 0C7.45 0 0 7.46667 0 16.6667C0 25.8667 7.45 33.3333 16.65 33.3333C25.8667 33.3333 33.3333 25.8667 33.3333 16.6667C33.3333 7.46667 25.8667 0 16.65 0ZM16.6667 30C9.3 30 3.33333 24.0333 3.33333 16.6667C3.33333 9.3 9.3 3.33333 16.6667 3.33333C24.0333 3.33333 30 9.3 30 16.6667C30 24.0333 24.0333 30 16.6667 30Z" fill="white"/>
<path d="M17.5 8.33398H15V18.334L23.75 23.584L25 21.534L17.5 17.084V8.33398Z" fill="white"/>
</svg>
