<svg width="179" height="179" viewBox="0 0 179 179" fill="none" xmlns="http://www.w3.org/2000/svg">
<path d="M89.5 15C99.2835 15 108.971 16.927 118.01 20.671C127.049 24.415 135.261 29.9026 142.179 36.8205C149.097 43.7385 154.585 51.9513 158.329 60.9901C162.073 70.0289 164 79.7165 164 89.5C164 99.2835 162.073 108.971 158.329 118.01C154.585 127.049 149.097 135.262 142.179 142.179C135.261 149.097 127.049 154.585 118.01 158.329C108.971 162.073 99.2835 164 89.5 164C79.7165 164 70.0288 162.073 60.9901 158.329C51.9513 154.585 43.7385 149.097 36.8205 142.179C29.9026 135.261 24.4149 127.049 20.671 118.01C16.927 108.971 15 99.2834 15 89.5C15 79.7165 16.927 70.0288 20.671 60.99C24.415 51.9513 29.9026 43.7385 36.8206 36.8205C43.7385 29.9026 51.9514 24.4149 60.9901 20.671C70.0289 16.927 79.7166 15 89.5 15L89.5 15Z" stroke="#151A20" stroke-width="8" stroke-linecap="round" stroke-linejoin="round"/>
<path d="M117.115 20.307C123.12 22.7038 128.788 25.8722 133.976 29.7325" stroke="#F32A28" stroke-width="10" stroke-linecap="round" stroke-linejoin="round"/>
<path d="M152.53 49.7824C160.605 62.5979 164.583 77.5707 163.931 92.7044" stroke="#F32A28" stroke-width="10" stroke-linecap="round" stroke-linejoin="round"/>
<path d="M153.878 126.993C152.512 129.338 151.02 131.606 149.407 133.788" stroke="#F32A28" stroke-width="10" stroke-linecap="round" stroke-linejoin="round"/>
<path d="M119.128 157.855C105.163 163.908 89.6786 165.539 74.7588 162.527" stroke="#F32A28" stroke-width="10" stroke-linecap="round" stroke-linejoin="round"/>
<path d="M49.3606 152.262C42.7421 148.029 36.8347 142.776 31.8576 136.697" stroke="#F32A28" stroke-width="10" stroke-linecap="round" stroke-linejoin="round"/>
<path d="M153.878 126.993C152.512 129.338 151.02 131.606 149.407 133.788" stroke="#F32A28" stroke-opacity="0.05" stroke-width="30" stroke-linecap="round" stroke-linejoin="round"/>
<path d="M119.128 157.855C105.163 163.908 89.6786 165.539 74.7588 162.527" stroke="#F32A28" stroke-opacity="0.05" stroke-width="30" stroke-linecap="round" stroke-linejoin="round"/>
<path d="M49.3606 152.262C42.7421 148.029 36.8347 142.776 31.8576 136.697" stroke="#F32A28" stroke-opacity="0.05" stroke-width="30" stroke-linecap="round" stroke-linejoin="round"/>
<path d="M17.9601 110.292C17.113 107.377 16.4448 104.413 15.9592 101.417" stroke="#F32A28" stroke-width="10" stroke-linecap="round" stroke-linejoin="round"/>
<path d="M16.3933 75.1593C17.6424 68.7915 19.7181 62.6142 22.5677 56.7843" stroke="#F32A28" stroke-width="10" stroke-linecap="round" stroke-linejoin="round"/>
<path d="M34.5661 39.1759C42.8814 30.0988 53.3165 23.2238 64.9383 19.1653" stroke="#F32A28" stroke-width="10" stroke-linecap="round" stroke-linejoin="round"/>
<path d="M89.5 15C90.6342 15 91.7683 15.0259 92.9014 15.0777" stroke="#F32A28" stroke-width="10" stroke-linecap="round" stroke-linejoin="round"/>
<path d="M117.115 20.307C123.12 22.7038 128.788 25.8722 133.976 29.7325" stroke="#F32A28" stroke-opacity="0.05" stroke-width="30" stroke-linecap="round" stroke-linejoin="round"/>
<path d="M152.53 49.7824C160.605 62.5979 164.583 77.5707 163.931 92.7044" stroke="#F32A28" stroke-opacity="0.05" stroke-width="30" stroke-linecap="round" stroke-linejoin="round"/>
<path d="M17.9601 110.292C17.113 107.377 16.4448 104.413 15.9592 101.417" stroke="#F32A28" stroke-opacity="0.05" stroke-width="30" stroke-linecap="round" stroke-linejoin="round"/>
<path d="M16.3933 75.1593C17.6424 68.7915 19.7181 62.6142 22.5677 56.7843" stroke="#F32A28" stroke-opacity="0.05" stroke-width="30" stroke-linecap="round" stroke-linejoin="round"/>
<path d="M34.5661 39.1759C42.8814 30.0988 53.3165 23.2238 64.9383 19.1653" stroke="#F32A28" stroke-opacity="0.05" stroke-width="30" stroke-linecap="round" stroke-linejoin="round"/>
<path d="M89.5 15C90.6342 15 91.7683 15.0259 92.9014 15.0777" stroke="#F32A28" stroke-opacity="0.05" stroke-width="30" stroke-linecap="round" stroke-linejoin="round"/>
</svg>
