<svg width="36" height="34" viewBox="0 0 36 34" fill="none" xmlns="http://www.w3.org/2000/svg">
<path d="M13.6641 10.3335V20.3335L21.4974 25.1668L22.8307 23.1668L16.1641 19.1668V10.3335H13.6641Z" fill="white"/>
<path d="M26.8654 17.0003C26.9487 17.5503 26.9987 18.1003 26.9987 18.667C26.9987 25.167 21.832 30.3337 15.332 30.3337C8.83203 30.3337 3.66536 25.167 3.66536 18.667C3.66536 12.167 8.83203 7.00033 15.332 7.00033C16.4987 7.00033 17.6154 7.16699 18.6654 7.48366V4.05033C17.5987 3.80033 16.482 3.66699 15.332 3.66699C6.9987 3.66699 0.332031 10.3337 0.332031 18.667C0.332031 27.0003 6.9987 33.667 15.332 33.667C23.6654 33.667 30.332 27.0003 30.332 18.667C30.332 18.1003 30.2987 17.5503 30.232 17.0003H26.8654Z" fill="white"/>
<path d="M30.3333 5.3335V0.333496H27V5.3335H22V8.66683H27V13.6668H30.3333V8.66683H35.3333V5.3335H30.3333Z" fill="white"/>
</svg>
