<svg width="40" height="40" viewBox="0 0 40 40" fill="none" xmlns="http://www.w3.org/2000/svg">
<path d="M33.8829 21.8262L33.8074 22.3918L34.2561 22.7445L38.4386 26.0323C38.4381 26.0334 38.4376 26.0345 38.437 26.0356L34.4459 32.9369L34.4397 32.9477L34.4337 32.9586C34.4327 32.9584 34.4316 32.9582 34.4303 32.9579L29.476 30.9679L28.9437 30.7541L28.4904 31.1056C27.5362 31.8456 26.4899 32.4648 25.3515 32.9279L24.8188 33.1445L24.7381 33.7138L23.9889 39H16.0013C15.9998 38.998 15.9979 38.9952 15.9957 38.9915C15.9919 38.9848 15.9871 38.9747 15.9828 38.9607L15.2392 33.7138L15.1585 33.1445L14.6259 32.9279C13.4925 32.4668 12.4642 31.8483 11.4792 31.0997L11.0276 30.7565L10.5014 30.9679L5.5721 32.9478C5.56294 32.9495 5.5546 32.9502 5.54744 32.9502C5.54413 32.9502 5.54126 32.95 5.53883 32.9498L5.53767 32.9477L5.53142 32.9369L1.54509 26.0438C1.54496 26.0424 1.54488 26.0405 1.54494 26.0383C1.54503 26.035 1.5454 26.0315 1.54604 26.0282C1.54617 26.0275 1.5463 26.0269 1.54644 26.0263L5.75913 22.7475L6.22926 22.3816L6.13132 21.7939C6.03862 21.2378 5.99909 20.6077 5.99909 20C5.99909 19.4322 6.0731 18.8054 6.17298 18.2061L6.27092 17.6184L5.8008 17.2525L1.58016 13.9675L5.55338 7.06117L5.55905 7.05132L5.56446 7.04139C5.56547 7.04155 5.5666 7.04178 5.56785 7.04208L10.5222 9.03211L11.0466 9.24273L11.4975 8.90221C12.466 8.17093 13.5157 7.53222 14.6467 7.07213L15.1793 6.85547L15.26 6.28616L16.0075 1.01217C16.0086 1.0073 16.0097 1.00327 16.0108 1H23.9991C24.0025 1 24.0045 1.00029 24.0056 1.00047L24.0067 1.00074C24.0069 1.00104 24.0073 1.00156 24.0077 1.00236C24.0084 1.00356 24.0101 1.00688 24.0117 1.01333L24.759 6.28616L24.8397 6.85547L25.3723 7.07213C26.5057 7.53318 27.534 8.15169 28.519 8.90033L28.9705 9.2435L29.4968 9.03211L34.4261 7.05216C34.4352 7.05046 34.4436 7.04978 34.4507 7.0498C34.454 7.04981 34.4569 7.04996 34.4593 7.05019L34.4605 7.05231L34.4668 7.06313L38.4531 13.9562C38.4532 13.9576 38.4533 13.9595 38.4532 13.9617C38.4532 13.965 38.4528 13.9684 38.4521 13.9718C38.452 13.9725 38.4519 13.9731 38.4517 13.9737L34.239 17.2525L33.7689 17.6184L33.8669 18.2061C33.9597 18.7629 33.9991 19.3723 33.9991 20C33.9991 20.6465 33.9599 21.248 33.8829 21.8262ZM11.4991 20C11.4991 24.6773 15.3218 28.5 19.9991 28.5C24.6764 28.5 28.4991 24.6773 28.4991 20C28.4991 15.3227 24.6764 11.5 19.9991 11.5C15.3218 11.5 11.4991 15.3227 11.4991 20Z" stroke="white" stroke-width="2"/>
</svg>
