<svg width="44" height="43" viewBox="0 0 44 43" fill="none" xmlns="http://www.w3.org/2000/svg">
<path d="M6.05809 0.976341C4.15075 1.73275 2.10957 3.67782 1.27302 5.62289C0.603775 7.17173 0.570312 7.71203 0.570312 21.4716C0.570312 35.2311 0.603775 35.7714 1.27302 37.3202C2.84573 40.8862 6.19193 42.7592 10.5755 42.471C14.2563 42.2189 16.7659 40.598 18.4056 37.3202C19.1417 35.9155 19.1417 35.5553 19.1417 21.4716C19.1417 7.38785 19.1417 7.02765 18.4056 5.62289C17.569 3.89394 15.8959 2.16499 14.2897 1.2645C12.6836 0.400024 7.93196 0.219929 6.05809 0.976341ZM10.7428 5.65891C11.0439 6.48736 10.3747 7.24377 9.37083 7.24377C8.90236 7.24377 8.13273 7.71203 7.56388 8.28835C6.69386 9.26088 6.59348 9.58505 6.59348 11.8183C6.59348 14.5558 6.32578 15.3122 5.38885 15.0961C4.81999 14.988 4.75307 14.5918 4.65268 11.9984C4.58576 9.44098 4.65268 8.82864 5.28846 7.74805C6.52655 5.58686 10.2074 4.1821 10.7428 5.65891ZM17.134 29.9722C17.134 35.6993 17.1006 35.9875 16.3309 37.2122C15.8959 37.8965 14.8251 38.9411 13.9886 39.5174C12.6501 40.4179 12.1482 40.562 9.93968 40.562C7.22926 40.562 5.45577 39.8416 4.0169 38.1487C2.54457 36.4558 2.24341 34.9789 2.24341 29.4679C2.24341 26.6224 2.3438 24.173 2.47765 24.029C2.6115 23.9209 5.9577 23.8489 9.90622 23.8849L17.134 23.9929V29.9722Z" fill-opacity="0.8"/>
<path d="M29.4186 4.41586C28.0008 5.12148 27.0672 6.04992 24.3008 9.76369L20.9466 14.2574L20.9812 17.8969L21.0158 21.5364L26.2027 25.9186C30.8709 29.8923 31.3204 30.3751 30.9055 30.9322C30.6288 31.2664 29.1073 33.309 27.5167 35.4259C24.4391 39.5481 22.9868 40.6251 20.4971 40.6623C18.941 40.6623 17.0046 41.9621 17.9728 42.3706C18.284 42.482 19.6672 42.5563 21.0504 42.4449C22.9177 42.3706 23.8859 42.1106 24.8541 41.4422C26.3756 40.4395 42.1437 19.4938 42.939 17.4141C43.6998 15.4829 43.5615 12.1776 42.5932 10.0237C40.1727 4.52728 34.2251 2.00191 29.4186 4.41586ZM35.2279 8.83525C36.611 9.46659 37.268 10.3208 36.9914 11.1007C36.7148 11.8434 36.2307 11.8434 34.8129 11.1007C33.1185 10.2093 31.9428 10.6921 29.8335 13.2175C28.4849 14.8516 27.8279 15.3715 27.413 15.1858C26.4102 14.7773 26.756 13.5517 28.3466 11.5092C30.7326 8.53815 32.7727 7.75826 35.2279 8.83525Z" fill-opacity="0.8"/>
</svg>
