<svg width="42" height="42" viewBox="0 0 42 42" fill="none" xmlns="http://www.w3.org/2000/svg">
<path d="M37.666 8.50033H29.3327V4.33366C29.3327 2.04199 27.4577 0.166992 25.166 0.166992H16.8327C14.541 0.166992 12.666 2.04199 12.666 4.33366V8.50033H4.33268C2.04102 8.50033 0.166016 10.3753 0.166016 12.667V37.667C0.166016 39.9587 2.04102 41.8337 4.33268 41.8337H37.666C39.9577 41.8337 41.8327 39.9587 41.8327 37.667V12.667C41.8327 10.3753 39.9577 8.50033 37.666 8.50033ZM16.8327 4.33366H25.166V8.50033H16.8327V4.33366ZM29.3327 27.2503H23.0827V33.5003H18.916V27.2503H12.666V23.0837H18.916V16.8337H23.0827V23.0837H29.3327V27.2503Z" fill="#00FF66" fill-opacity="0.8"/>
</svg>
