<svg width="14" height="18" viewBox="0 0 14 18" fill="none" xmlns="http://www.w3.org/2000/svg">
<path d="M5.26169 0.305835C5.21872 0.316382 5.12498 0.362085 5.05466 0.411304C4.57029 0.741772 4.87107 1.45193 5.47654 1.39919C5.82029 1.36755 6.03122 1.1531 6.03122 0.836694C6.03122 0.646851 5.92185 0.467554 5.74997 0.372632C5.63279 0.312866 5.37888 0.27771 5.26169 0.305835Z"/>
<path d="M7.7617 0.868335C7.71873 0.878882 7.62498 0.924585 7.55466 0.973804C7.07029 1.30427 7.37107 2.01443 7.97654 1.96169C8.32029 1.93005 8.53123 1.7156 8.53123 1.39919C8.53123 1.20935 8.42186 1.03005 8.24998 0.935132C8.13279 0.875367 7.87888 0.84021 7.7617 0.868335Z"/>
<path d="M3.97278 2.28164C3.46497 2.39766 3.1681 2.84414 3.28919 3.3082C3.32825 3.45234 3.38294 3.5332 3.53919 3.67734C3.76185 3.88125 3.9181 3.9375 4.27747 3.9375H4.50013V6.13828V8.33906L2.32825 12.143C-0.0545602 16.316 0.0509085 16.1051 0.125127 16.6113C0.207159 17.1422 0.597784 17.6273 1.14075 17.8734L1.42591 18H7.00013H12.5744L12.8595 17.8734C13.5704 17.5535 13.9728 16.868 13.8751 16.1543C13.8478 15.9574 13.6954 15.7184 11.34 12.1535L8.83607 8.36367V6.15234V3.9375H9.08216C9.41029 3.9375 9.57435 3.8918 9.76576 3.74063C10.0079 3.55781 10.1017 3.37148 10.1017 3.09375C10.1017 2.75977 9.93372 2.50664 9.59779 2.34492C9.44154 2.26758 9.42591 2.26758 6.76575 2.26055C5.2931 2.25703 4.03919 2.26758 3.97278 2.28164ZM9.31654 2.85117C9.50794 2.92852 9.55482 3.15352 9.40247 3.28711C9.31263 3.37148 9.28919 3.375 8.77747 3.375H8.24622L8.25794 5.87813L8.26966 8.38477L10.7658 12.2449L13.2579 16.1051L13.2619 16.323C13.2658 16.4496 13.2384 16.6184 13.1954 16.7238C13.1056 16.9629 12.8204 17.2477 12.5665 17.3531L12.3712 17.4375H7.03529C1.07435 17.4375 1.50403 17.4551 1.16028 17.1844C0.843878 16.9348 0.668096 16.5023 0.746221 16.1789C0.769659 16.084 1.70325 14.3965 2.95716 12.1887L5.12513 8.36367V5.87109V3.375H4.59778C4.08607 3.375 4.06263 3.37148 3.97278 3.28711C3.82825 3.15703 3.86341 2.93203 4.047 2.85469C4.1681 2.80195 9.19154 2.79844 9.31654 2.85117Z"/>
<path d="M5.02734 10.3324C4.58203 10.5328 4.60547 10.5012 2.92188 13.4859C1.67578 15.7008 1.375 16.2598 1.375 16.3723C1.375 16.5445 1.48438 16.7309 1.64844 16.8293L1.77734 16.9102H6.94922C11.6445 16.9102 12.1367 16.9031 12.2578 16.8539C12.4414 16.7766 12.5547 16.6184 12.5781 16.418C12.5938 16.2492 12.5859 16.2316 10.8438 13.4895L9.09375 10.7332L8.87891 10.8914C8.45703 11.2008 8.01953 11.3063 7.60156 11.1973C7.29297 11.1199 7.10938 11.018 6.70312 10.7051C6.23047 10.343 6.01562 10.2516 5.59375 10.2375C5.28906 10.227 5.24219 10.234 5.02734 10.3324Z"/>
</svg>
