<svg width="42" height="46" viewBox="0 0 42 46" fill="none" xmlns="http://www.w3.org/2000/svg">
<path d="M10.5827 4.24967H4.33268V10.4997H0.166016V0.0830078H10.5827V4.24967ZM41.8327 10.4997V0.0830078H31.416V4.24967H37.666V10.4997H41.8327ZM10.5827 41.7497H4.33268V35.4997H0.166016V45.9163H10.5827V41.7497ZM37.666 35.4997V41.7497H31.416V45.9163H41.8327V35.4997H37.666ZM35.5827 35.4997C35.5827 37.7913 33.7077 39.6663 31.416 39.6663H10.5827C8.29102 39.6663 6.41602 37.7913 6.41602 35.4997V10.4997C6.41602 8.20801 8.29102 6.33301 10.5827 6.33301H31.416C33.7077 6.33301 35.5827 8.20801 35.5827 10.4997V35.4997ZM27.2494 14.6663H14.7493V18.833H27.2494V14.6663ZM27.2494 20.9163H14.7493V25.083H27.2494V20.9163ZM27.2494 27.1663H14.7493V31.333H27.2494V27.1663Z" fill="#00FF66" fill-opacity="0.8"/>
</svg>
