<svg width="21" height="23" viewBox="0 0 21 23" fill="none" xmlns="http://www.w3.org/2000/svg">
<path d="M5.29134 2.12533H2.16634V5.25033H0.0830078V0.0419922H5.29134V2.12533ZM20.9163 5.25033V0.0419922H15.708V2.12533H18.833V5.25033H20.9163ZM5.29134 20.8753H2.16634V17.7503H0.0830078V22.9587H5.29134V20.8753ZM18.833 17.7503V20.8753H15.708V22.9587H20.9163V17.7503H18.833ZM17.7913 17.7503C17.7913 18.8962 16.8538 19.8337 15.708 19.8337H5.29134C4.14551 19.8337 3.20801 18.8962 3.20801 17.7503V5.25033C3.20801 4.10449 4.14551 3.16699 5.29134 3.16699H15.708C16.8538 3.16699 17.7913 4.10449 17.7913 5.25033V17.7503ZM13.6247 7.33366H7.37468V9.41699H13.6247V7.33366ZM13.6247 10.4587H7.37468V12.542H13.6247V10.4587ZM13.6247 13.5837H7.37468V15.667H13.6247V13.5837Z" />
</svg>
