<svg width="40" height="42" viewBox="0 0 40 42" fill="none" xmlns="http://www.w3.org/2000/svg">
<path d="M35.5556 4.2H26.2667C25.3333 1.764 22.8889 0 20 0C17.1111 0 14.6667 1.764 13.7333 4.2H4.44444C2 4.2 0 6.09 0 8.4V37.8C0 40.11 2 42 4.44444 42H35.5556C38 42 40 40.11 40 37.8V8.4C40 6.09 38 4.2 35.5556 4.2ZM20 4.2C21.2222 4.2 22.2222 5.145 22.2222 6.3C22.2222 7.455 21.2222 8.4 20 8.4C18.7778 8.4 17.7778 7.455 17.7778 6.3C17.7778 5.145 18.7778 4.2 20 4.2ZM20 12.6C23.6889 12.6 26.6667 15.414 26.6667 18.9C26.6667 22.386 23.6889 25.2 20 25.2C16.3111 25.2 13.3333 22.386 13.3333 18.9C13.3333 15.414 16.3111 12.6 20 12.6ZM33.3333 37.8H6.66667V34.86C6.66667 30.66 15.5556 28.35 20 28.35C24.4444 28.35 33.3333 30.66 33.3333 34.86V37.8Z" fill="white"/>
</svg>
