<svg width="25" height="25" viewBox="0 0 25 25" fill="none" xmlns="http://www.w3.org/2000/svg">
<path d="M3.34461 1.15534C2.7835 1.24978 2.25016 1.53312 1.82516 1.96089C1.38072 2.41089 1.11128 2.97478 1.03072 3.62478C0.989054 3.96645 0.986276 20.9526 1.02794 21.3609C1.09739 22.0137 1.44461 22.7192 1.89739 23.1276C2.24183 23.4359 2.68628 23.6831 3.12516 23.8109L3.34739 23.8748L10.7779 23.8803L18.2085 23.8887L21.0974 20.9998L23.9863 18.1109L23.9835 10.8664C23.9807 5.29978 23.9724 3.58312 23.9474 3.44978C23.8307 2.84145 23.5585 2.33589 23.1224 1.91367C22.7502 1.55534 22.3946 1.35256 21.8835 1.20256L21.6252 1.12478L12.5974 1.12201C5.08627 1.11645 3.53072 1.12201 3.34461 1.15534ZM13.0335 3.86645C13.164 3.90534 13.2918 4.04145 13.3307 4.18589C13.4002 4.43867 13.3502 4.73867 13.214 4.88312C13.1613 4.93867 13.1557 4.97478 13.1613 5.13312C13.1668 5.23589 13.1585 5.35256 13.1418 5.39423C13.1196 5.45256 13.1224 5.47478 13.1557 5.50256C13.2335 5.56645 13.3113 5.75812 13.3279 5.922C13.339 6.06367 13.3474 6.08312 13.3918 6.06923C13.5474 6.01923 13.814 5.98034 13.964 5.98312L14.1335 5.98589L14.1529 5.86089C14.1946 5.58867 14.4307 5.29978 14.7863 5.08867C15.1418 4.87478 15.8863 4.61089 16.1224 4.61089C16.3029 4.61089 16.6085 4.68589 16.7363 4.76367C16.8752 4.84423 16.9918 4.97478 17.0502 5.11089C17.0974 5.22478 17.1002 5.52478 17.0557 5.69145C17.039 5.75812 17.0279 5.81367 17.0335 5.81645C17.1224 5.86645 17.6585 6.00534 17.7974 6.01367C18.1474 6.03589 18.1918 6.14145 18.0696 6.63867C18.0279 6.80256 17.9918 7.05812 17.9807 7.222C17.9585 7.65534 18.0529 9.27756 18.1252 9.69423C18.1335 9.73312 18.1585 9.96367 18.1807 10.2081C18.2668 11.1109 18.389 11.5053 18.7168 11.9303C18.8529 12.1081 18.8668 12.1859 18.7918 12.3331C18.7002 12.5109 18.5557 12.5414 18.3557 12.4303C18.1752 12.3303 18.014 12.3164 17.8752 12.3859C17.8168 12.4192 17.7474 12.4442 17.7224 12.4442C17.6974 12.4442 17.7085 12.4609 17.7502 12.4803C17.789 12.5026 17.914 12.5692 18.0279 12.6331C18.1418 12.697 18.3029 12.7609 18.3835 12.7803C18.464 12.797 18.564 12.8387 18.6029 12.872C18.7085 12.9637 18.6946 13.0859 18.5307 13.4387C18.3418 13.847 18.2918 14.0359 18.1946 14.6803C17.989 16.0776 17.9029 17.1331 17.9029 18.2498C17.9057 19.1053 17.9752 19.5998 18.1557 19.9998C18.239 20.1859 18.2335 20.247 18.1168 20.3831C18.0668 20.4442 18.0085 20.4776 17.939 20.4887C17.8502 20.5053 17.8196 20.4942 17.7168 20.4081C17.4946 20.2303 17.3668 20.1887 17.2057 20.2498C17.0474 20.3109 16.8613 20.2053 16.8613 20.0553C16.8613 20.0081 16.9252 19.7998 17.0029 19.5914C17.2863 18.8276 17.2807 18.872 17.5557 15.6526C17.6168 14.9331 17.6863 14.197 17.7085 14.0137C17.7807 13.4303 17.7502 13.2553 17.5418 13.0942C17.4863 13.0498 17.414 12.9942 17.3863 12.972C17.3557 12.9498 17.314 12.8803 17.2946 12.8192C17.2613 12.7248 17.2613 12.697 17.2946 12.6359C17.3307 12.5637 17.5279 12.4442 17.614 12.4442C17.6363 12.4414 17.6196 12.4248 17.5779 12.3998C17.5363 12.3776 17.4918 12.3276 17.4835 12.2887C17.4724 12.2498 17.5002 12.0053 17.5418 11.7414C17.614 11.297 17.6168 11.2276 17.6029 10.7359C17.5918 10.4442 17.5585 9.86367 17.5279 9.44423C17.4974 9.02478 17.4418 8.28034 17.4029 7.79145C17.3668 7.30256 17.3224 6.85812 17.3029 6.80534C17.2474 6.64145 17.139 6.52478 16.9863 6.45812C16.9085 6.422 16.8085 6.35256 16.7668 6.30534C16.7252 6.25534 16.689 6.21923 16.6863 6.22478C16.6807 6.23034 16.5835 6.34145 16.4696 6.472C16.3529 6.60256 16.2085 6.78312 16.1474 6.87478C16.0418 7.03312 16.039 7.04423 16.0724 7.13867C16.1168 7.26367 16.1196 7.53034 16.0779 7.62478C16.0502 7.68589 16.0529 7.70256 16.1057 7.73867C16.3807 7.93034 16.6363 8.222 16.7724 8.497C16.8613 8.67756 16.8752 8.72756 16.8752 8.91367C16.8752 9.09145 16.8613 9.14978 16.7974 9.28589C16.7529 9.372 16.6724 9.48312 16.614 9.53312L16.5085 9.61923L16.6418 9.79423C16.8168 10.0276 16.8974 10.2387 16.9002 10.4859C16.9029 10.7303 16.8057 10.947 16.6279 11.1026L16.5113 11.2053L16.6418 11.3776C16.9752 11.8164 16.989 12.2942 16.6807 12.6359C16.5557 12.772 16.2529 12.9303 16.0252 12.9748C15.889 13.0026 15.8613 13.0164 15.8779 13.0526C15.9779 13.2803 16.0113 13.422 16.014 13.6248C16.014 13.8137 16.0029 13.872 15.9363 14.0053C15.7446 14.3942 15.2807 14.5803 14.6835 14.5053C14.4224 14.472 13.9335 14.3303 13.7307 14.2276L13.6224 14.172L13.5752 14.2914C13.5474 14.3581 13.5029 14.4303 13.4752 14.4581C13.4252 14.4998 13.4252 14.5081 13.4668 14.5914C13.5724 14.8026 13.5279 15.2192 13.3863 15.3498C13.339 15.3914 13.3335 15.4192 13.3529 15.5248C13.3946 15.7914 13.3557 15.9637 13.2252 16.1026C13.1752 16.1553 13.1668 16.1998 13.1668 16.3914C13.1668 16.6609 13.1057 16.7942 12.9446 16.8859C12.8557 16.9359 12.7946 16.9442 12.5418 16.9442C12.1585 16.9442 12.0585 16.8942 12.0557 16.6998C12.0557 16.4998 12.1835 16.4164 12.4863 16.4164C12.6613 16.4164 12.6668 16.4137 12.6668 16.347V16.2776H12.3863C12.114 16.2776 12.1057 16.2748 12.0252 16.197C11.9696 16.1414 11.9446 16.0887 11.9446 16.0276C11.9446 15.8081 12.064 15.7498 12.5279 15.7498C12.8418 15.7498 12.8613 15.747 12.8613 15.6942C12.8613 15.6414 12.8418 15.6387 12.4863 15.6387C11.989 15.6387 11.889 15.5914 11.889 15.347C11.889 15.1053 11.9585 15.072 12.5279 15.0553L12.9863 15.0414V14.9164V14.7914L12.5002 14.7776C11.9529 14.7609 11.889 14.7414 11.8168 14.5664C11.7835 14.4859 11.7835 14.4581 11.814 14.3803C11.8974 14.1887 11.9196 14.1803 12.5113 14.172C13.1057 14.1637 13.1113 14.1609 13.1113 13.9692C13.1113 13.7859 13.0835 13.7776 12.5446 13.7776H12.064L11.8724 13.9053C11.7668 13.9776 11.5613 14.0942 11.4168 14.1664C10.3585 14.6942 9.39738 14.6303 9.09183 14.0081C9.02794 13.8748 9.01683 13.8192 9.01961 13.6276C9.02238 13.422 9.04738 13.3081 9.15294 13.0526C9.16683 13.0164 9.13905 13.0026 9.00849 12.9748C8.65849 12.9081 8.33627 12.6914 8.21961 12.4498C8.05294 12.1109 8.11961 11.7442 8.41683 11.347L8.52238 11.2053L8.41405 11.1164C8.03627 10.797 8.03627 10.2581 8.41127 9.76645L8.51683 9.63034L8.40294 9.51645C8.11127 9.222 8.07238 8.82756 8.30016 8.40534C8.37238 8.26923 8.77794 7.83034 8.91405 7.74145C8.97238 7.70256 8.97516 7.68867 8.94738 7.60812C8.93072 7.56089 8.91683 7.48589 8.91683 7.44423C8.91683 7.33312 8.56683 6.80812 8.25849 6.45256C8.01127 6.16923 7.98349 6.14701 7.96405 6.20256C7.92794 6.30256 7.82794 6.39145 7.68072 6.45812C7.46405 6.55534 7.36127 6.69978 7.32238 6.95812C7.31405 7.01923 7.26961 7.60534 7.22238 8.26367C7.17794 8.91923 7.1335 9.51923 7.12516 9.597C7.09461 9.93034 7.05016 10.7053 7.05016 10.9998C7.05016 11.2248 7.06961 11.4498 7.12238 11.7609C7.16405 12.0026 7.18905 12.2387 7.18072 12.2803C7.16961 12.3276 7.13072 12.3776 7.08905 12.3998L7.01683 12.4387L7.1085 12.4581C7.15849 12.4692 7.24183 12.5137 7.29461 12.5609C7.4585 12.7053 7.41405 12.872 7.16683 13.0581C7.09738 13.1109 7.01405 13.2081 6.97794 13.2776C6.89738 13.4303 6.90294 13.597 7.01127 14.4581C7.05294 14.7776 7.12238 15.347 7.16961 15.722C7.21405 16.097 7.28905 16.672 7.3335 16.9998C7.37794 17.3276 7.4585 17.9414 7.51405 18.3609C7.62794 19.2192 7.67516 19.522 7.73905 19.7637C7.76405 19.8553 7.79183 19.9581 7.79738 19.9914C7.84183 20.1859 7.6835 20.3053 7.46127 20.2442C7.29738 20.1998 7.16127 20.2414 6.96961 20.3914C6.84461 20.4914 6.81405 20.5053 6.72516 20.4887C6.61961 20.472 6.52794 20.3831 6.46961 20.2414C6.44183 20.1776 6.45016 20.1387 6.52238 19.9776C6.71127 19.5553 6.79461 18.8498 6.76961 17.9303C6.73905 16.9303 6.62794 15.7164 6.46961 14.6942C6.36683 14.0331 6.3335 13.897 6.18905 13.572C6.0085 13.1637 5.96961 13.0414 6.00016 12.9609C6.0335 12.8692 6.11961 12.8164 6.29183 12.7776C6.36961 12.7609 6.51127 12.6998 6.61127 12.6442C6.71127 12.5887 6.83627 12.522 6.88905 12.4942C6.94461 12.4637 6.96405 12.4442 6.93627 12.4442C6.9085 12.4442 6.85572 12.422 6.81405 12.397C6.70016 12.322 6.4835 12.3331 6.32238 12.4248C6.09461 12.5526 5.95294 12.5137 5.86405 12.3026C5.83072 12.2303 5.80572 12.1609 5.80572 12.147C5.80572 12.1331 5.86961 12.0359 5.94738 11.9303C6.1335 11.6776 6.29183 11.3414 6.36127 11.0498C6.47516 10.5692 6.65016 8.76923 6.6835 7.722C6.70016 7.16923 6.69738 7.14423 6.62516 6.80534C6.58072 6.61367 6.54738 6.38589 6.54461 6.29423C6.54183 6.08034 6.59738 6.03312 6.87516 6.01367C6.9835 6.00534 7.18627 5.96089 7.32794 5.91367C7.49183 5.85812 7.61683 5.83312 7.66683 5.84145L7.74461 5.85812L7.70294 5.71923C7.67516 5.62756 7.66405 5.49701 7.67238 5.34978C7.67794 5.15534 7.69183 5.10256 7.75849 5.00534C7.92516 4.75256 8.21127 4.62478 8.61127 4.62756C8.80572 4.63034 8.90016 4.64701 9.14738 4.73034C10.0585 5.03589 10.5363 5.41923 10.6002 5.88589L10.6196 6.02756L10.7752 6.00534C11.0113 5.97478 11.3279 5.98867 11.5029 6.03312L11.6585 6.07478L11.6779 5.90812C11.6974 5.70534 11.7946 5.52756 11.9307 5.44423C11.9835 5.41089 12.064 5.347 12.1085 5.30256C12.1863 5.22756 12.2029 5.222 12.414 5.222H12.639V5.13867V5.05534H12.364C12.1113 5.05534 12.0807 5.04978 12.0085 4.98867C11.9002 4.89423 11.9002 4.71645 12.0085 4.62201C12.0835 4.55812 12.1057 4.55534 12.4613 4.55534H12.8335V4.45812V4.36089H12.4446C12.2057 4.36089 12.0307 4.347 11.9863 4.32756C11.9113 4.29423 11.8335 4.17478 11.8335 4.097C11.8335 4.02756 11.9196 3.89701 11.9835 3.86367C12.0668 3.82478 12.9002 3.82478 13.0335 3.86645ZM10.6946 15.8692C11.0252 16.0026 11.1696 16.1164 11.6835 16.6303C11.9613 16.9081 12.239 17.1609 12.3029 17.1914C12.4446 17.2664 12.6168 17.2664 12.7696 17.1914C12.8418 17.1553 12.9974 17.0192 13.1668 16.8387C13.9279 16.0303 14.3279 15.7776 14.8502 15.7776C15.3779 15.7776 15.864 16.1053 16.139 16.647C16.2002 16.7664 16.2946 17.0026 16.3474 17.172C16.4418 17.4637 16.4474 17.4942 16.4196 17.6526C16.339 18.1164 15.8196 18.7914 15.2224 19.2081C15.139 19.2664 15.0529 19.3359 15.0335 19.3581C14.9418 19.4664 14.8252 19.7692 14.7252 20.1581C14.6085 20.5998 14.5613 20.7192 14.4613 20.8276C14.3279 20.9748 14.3779 20.972 12.5835 20.972C10.7502 20.972 10.8029 20.9776 10.6224 20.8026C10.5224 20.7053 10.4474 20.547 10.3502 20.222C10.2446 19.8609 10.0363 19.5359 9.71961 19.222C9.50294 19.0081 9.43072 18.9137 9.33627 18.7276C9.27238 18.6026 9.17794 18.4526 9.12794 18.3942C8.55294 17.7553 8.52794 17.1553 9.04461 16.4248C9.25572 16.1276 9.62794 15.8748 9.94738 15.8053C10.1502 15.7637 10.5057 15.7942 10.6946 15.8692Z" />
<path d="M10.9029 6.40549C10.8585 6.41383 10.7585 6.43049 10.6807 6.44716L10.5418 6.47494L10.464 6.7305C10.4196 6.87217 10.3168 7.13606 10.2363 7.31939C10.1529 7.50273 10.1001 7.65551 10.114 7.66106C10.1613 7.68051 10.5557 7.58328 10.7696 7.49995C11.0363 7.39717 11.3807 7.17772 11.5113 7.02217C11.5668 6.96106 11.6307 6.8555 11.6557 6.78883C11.6974 6.67494 11.6974 6.66383 11.6529 6.59439C11.6279 6.5555 11.5557 6.49994 11.4918 6.47216C11.3724 6.41938 11.0529 6.38327 10.9029 6.40549Z" />
<path d="M13.7141 6.41621C13.4558 6.46066 13.3169 6.59399 13.3641 6.75788C13.428 6.9801 13.6919 7.22454 14.0752 7.41621C14.2752 7.51343 14.603 7.62732 14.6252 7.6051C14.628 7.60232 14.578 7.47177 14.5113 7.32177C14.4447 7.17177 14.3447 6.90788 14.2891 6.73566L14.1891 6.42177L14.0641 6.4051C13.9197 6.38566 13.8974 6.38566 13.7141 6.41621Z" />
<path d="M11.4309 7.62737C11.3309 7.70515 10.9503 7.88848 10.7448 7.95515C10.5253 8.03015 10.2698 8.07737 10.0226 8.09126C9.88644 8.09959 9.85311 8.11348 9.78366 8.18848C9.66978 8.30793 9.55311 8.30793 9.44478 8.18848L9.36422 8.09959L9.16422 8.26626C8.80589 8.55793 8.642 8.88848 8.76422 9.07182C8.78922 9.11071 8.88089 9.17737 8.967 9.21626C9.10589 9.28015 9.16978 9.29126 9.46422 9.29959C9.70589 9.30793 9.86978 9.29682 10.0337 9.26348C10.8059 9.11071 11.5087 8.71626 11.8031 8.27459C11.9948 7.98848 11.9559 7.79404 11.6809 7.65793C11.542 7.58848 11.4892 7.58293 11.4309 7.62737Z" />
<path d="M13.3723 7.64977C13.2945 7.68588 13.2056 7.74977 13.1723 7.79144C12.8973 8.13866 13.5889 8.82755 14.5223 9.13866C14.8806 9.25811 15.1667 9.30811 15.489 9.30811C15.8473 9.30811 16.0779 9.24977 16.2112 9.12477C16.3251 9.01644 16.3362 8.88588 16.2445 8.69977C16.1751 8.54977 15.9029 8.26922 15.7112 8.14422C15.5251 8.02477 15.4445 8.02755 15.3167 8.16644C15.1806 8.31366 15.0667 8.31922 14.9529 8.18311C14.8862 8.10255 14.8473 8.08588 14.6806 8.05811C14.3445 7.99977 13.8473 7.80533 13.6056 7.63588C13.5167 7.57199 13.5417 7.56922 13.3723 7.64977Z" />
<path d="M11.4363 9.33567C10.8696 9.67456 10.028 9.90233 9.42518 9.87733C9.28629 9.87178 9.15852 9.85789 9.14463 9.84956C9.10852 9.82733 8.82518 10.1329 8.75296 10.2718C8.63629 10.4996 8.70851 10.694 8.9474 10.7884C9.47796 11.0023 10.4502 10.8246 11.1641 10.3857C11.6057 10.1134 11.8974 9.769 11.8974 9.519C11.8974 9.42456 11.8807 9.39122 11.7974 9.31344C11.7419 9.26344 11.6807 9.22178 11.6613 9.22178C11.6419 9.22178 11.5391 9.27178 11.4363 9.33567Z" />
<path d="M13.2669 9.28057C13.1169 9.40002 13.0947 9.5528 13.1975 9.75557C13.2808 9.92502 13.6197 10.2417 13.878 10.3945C14.703 10.8917 15.8447 11.0334 16.2363 10.6917C16.3169 10.6195 16.3336 10.5861 16.3336 10.4972C16.3336 10.3472 16.228 10.1556 16.0558 9.98335C15.9141 9.84168 15.9141 9.84168 15.7863 9.86391C15.6169 9.89724 15.178 9.87502 14.8919 9.81946C14.4502 9.73335 13.9836 9.55835 13.5891 9.33335C13.4836 9.27224 13.3836 9.22224 13.3697 9.22224C13.353 9.22224 13.3086 9.24724 13.2669 9.28057Z" />
<path d="M11.5143 10.8388C11.317 10.9638 10.9198 11.1499 10.6559 11.236C10.2032 11.386 9.97538 11.4249 9.51982 11.4333L9.10594 11.4388L8.96982 11.5721C8.81149 11.7305 8.69482 11.9416 8.69482 12.0777C8.69482 12.3555 9.18371 12.5166 9.80594 12.4416C10.642 12.3388 11.5504 11.8527 11.817 11.361C11.9559 11.1083 11.917 10.9471 11.6948 10.8333C11.6004 10.786 11.5948 10.786 11.5143 10.8388Z" />
<path d="M13.3281 10.8359C13.0281 10.9915 13.0753 11.2804 13.4587 11.6526C13.9726 12.1526 14.8975 12.4915 15.6392 12.4554C15.9142 12.4415 16.117 12.3804 16.2364 12.2748C16.317 12.2026 16.3336 12.1693 16.3336 12.0776C16.3336 11.9248 16.242 11.7498 16.0725 11.5804L15.9309 11.4387L15.5142 11.4332C15.0559 11.4248 14.7392 11.3693 14.3087 11.2165C14.0753 11.1332 13.6809 10.9443 13.5142 10.8359C13.4309 10.7832 13.4309 10.7832 13.3281 10.8359Z" />
<path d="M11.8281 12.1889C11.5559 12.4278 11.0948 12.675 10.6587 12.8195C10.3893 12.9084 10.0059 13 9.89761 13C9.83372 13 9.65594 13.275 9.60316 13.4584C9.50316 13.8056 9.66427 13.9556 10.1254 13.95C10.7282 13.9417 11.5976 13.525 12.092 13.0056L12.1698 12.925L12.1143 12.8278C12.0254 12.6778 11.9448 12.425 11.9393 12.2611C11.9337 12.1778 11.9281 12.1111 11.9254 12.1111C11.9226 12.1111 11.8781 12.1472 11.8281 12.1889Z" />
<path d="M13.0861 12.3275C13.0667 12.4553 13.0167 12.6219 12.9611 12.7386L12.8667 12.9386L13.0389 13.0914C13.6361 13.633 14.3361 13.9497 14.9306 13.9497C15.25 13.9497 15.4195 13.8664 15.4584 13.6914C15.4834 13.583 15.4111 13.3497 15.2945 13.1636L15.1972 13.0108L14.9945 12.9775C14.3945 12.8858 13.6584 12.5664 13.2473 12.2219L13.1195 12.1164L13.0861 12.3275Z" />
<path d="M11.2474 18.2775C10.8947 18.4636 10.7891 18.8136 10.9724 19.183C11.1197 19.483 11.4391 19.7025 11.9169 19.8303C12.6891 20.0386 13.4113 19.9192 13.8113 19.5192C13.9891 19.3414 14.078 19.1469 14.1113 18.8692C14.1391 18.6164 14.1141 18.533 13.9697 18.3969C13.7586 18.1997 13.6141 18.2136 13.3724 18.4553C13.2808 18.5497 13.1641 18.6942 13.1169 18.7803C13.0669 18.8664 12.9808 18.9914 12.9197 19.058L12.8113 19.1803L12.6058 19.1775C12.2641 19.1719 12.1697 19.0997 11.8085 18.5636C11.5808 18.2219 11.4641 18.1636 11.2474 18.2775Z" />
<path d="M10.9806 20.0691C10.9501 20.0914 10.9084 20.1469 10.8945 20.1914C10.8668 20.2691 10.8723 20.283 10.9529 20.3497C11.0918 20.4664 11.3723 20.5941 11.4473 20.5747C11.539 20.5497 11.6668 20.4247 11.6668 20.3608C11.6668 20.2914 11.4834 20.158 11.289 20.083C11.1084 20.0164 11.0584 20.0136 10.9806 20.0691Z" />
<path d="M13.8166 20.0747C13.6472 20.1719 13.5 20.3275 13.5 20.408C13.5 20.4719 13.6417 20.583 13.7222 20.583C13.8111 20.583 14.2055 20.3913 14.3 20.3052C14.3805 20.2302 14.3472 20.1608 14.1944 20.083C14.0611 20.0136 13.9278 20.0108 13.8166 20.0747Z" />
</svg>
