 <svg width="146" height="76" viewBox="0 0 146 76" fill="none" xmlns="http://www.w3.org/2000/svg">
      <line y1="51.6558" x2="145" y2="51.6558" stroke="#324B55"/>
      <line x1="5.26538" y1="1.547e-08" x2="5.26538" y2="52.1558" stroke="#324B55"/>
      <line x1="27.7302" y1="1.547e-08" x2="27.7302" y2="52.1558" stroke="#324B55"/>
      <line x1="50.1948" y1="1.547e-08" x2="50.1948" y2="52.1558" stroke="#324B55"/>
      <line x1="72.6597" y1="1.547e-08" x2="72.6597" y2="52.1558" stroke="#324B55"/>
      <line x1="95.1243" y1="1.547e-08" x2="95.1243" y2="52.1558" stroke="#324B55"/>
      <line x1="117.589" y1="1.547e-08" x2="117.589" y2="52.1558" stroke="#324B55"/>
      <line x1="140.054" y1="1.547e-08" x2="140.054" y2="52.1558" stroke="#324B55"/>
      <path d="M0 8.5C0 5.46243 2.46243 3 5.5 3V3C8.53757 3 11 5.46243 11 8.5V52H0V8.5Z" fill="#005DAD"/>
      <path d="M11 54.5C11 57.5376 8.53757 60 5.5 60C2.46243 60 -6.08069e-07 57.5376 -1.81743e-07 54.5L1.69134e-07 52L11 52L11 54.5Z" fill="#005DAD"/>
      <path d="M56 58C56 60.7614 53.7614 63 51 63C48.2386 63 46 60.7614 46 58L46 52L56 52L56 58Z" fill="#005DAD"/>
      <path d="M78 62C78 64.7614 75.7614 67 73 67C70.2386 67 68 64.7614 68 62L68 52L78 52L78 62Z" fill="#005DAD"/>
      <path d="M101 71C101 73.7614 98.7614 76 96 76C93.2386 76 91 73.7614 91 71L91 52L101 52L101 71Z" fill="#005DAD"/>
      <path d="M123 64C123 66.7614 120.761 69 118 69C115.239 69 113 66.7614 113 64L113 52L123 52L123 64Z" fill="#005DAD"/>
      <path d="M146 61.5C146 64.5376 143.538 67 140.5 67C137.462 67 135 64.5376 135 61.5L135 52L146 52L146 61.5Z" fill="#005DAD"/>
      <path d="M23 44C23 41.2386 25.2386 39 28 39C30.7614 39 33 41.2386 33 44V52H23V44Z" fill="#005DAD"/>
      <path d="M46 23C46 20.2386 48.2386 18 51 18C53.7614 18 56 20.2386 56 23V52H46V23Z" fill="#005DAD"/>
      <path d="M68 36C68 33.2386 70.2386 31 73 31C75.7614 31 78 33.2386 78 36V52H68V36Z" fill="#005DAD"/>
      <path d="M91 32C91 29.2386 93.2386 27 96 27C98.7614 27 101 29.2386 101 32V52H91V32Z" fill="#005DAD"/>
      <path d="M113 30C113 27.2386 115.239 25 118 25C120.761 25 123 27.2386 123 30V52H113V30Z" fill="#005DAD"/>
      <path d="M135 24.5C135 21.4624 137.462 19 140.5 19C143.538 19 146 21.4624 146 24.5V52H135V24.5Z" fill="#005DAD"/>
      <path d="M33 64C33 66.7614 30.7614 69 28 69C25.2386 69 23 66.7614 23 64L23 52L33 52L33 64Z" fill="#005DAD"/>
    </svg>