<svg width="34" height="50" viewBox="0 0 34 50" fill="none" xmlns="http://www.w3.org/2000/svg">
<path d="M16.2326 0.0431767C13.6748 0.335711 11.5212 2.40473 11.0692 5.0003C10.9469 5.70239 10.9894 6.79806 11.1755 7.50014C11.5052 8.78198 12.271 9.94148 13.3026 10.7393C14.8341 11.9201 16.8282 12.2977 18.6947 11.7605C20.2953 11.2925 21.6194 10.1702 22.3745 8.63305C24.475 4.35673 20.9972 -0.509979 16.2326 0.0431767Z" fill-opacity="0.8"/>
<path d="M7.32866 13.096C6.76904 13.2317 6.32849 13.4352 5.88198 13.7536C4.95325 14.4268 4.47102 15.3767 4.47102 16.5458V17.0155H2.23849H0.00595342L0 27.8033C0 33.7426 0 38.899 0 39.2748C0 39.6454 0 40.136 0 40.3552L0.00595342 40.7622H2.80406H5.60217V45.3811V50H10.9781H16.3481L16.7946 47.1295C17.0387 45.5534 17.253 44.3008 17.2768 44.353C17.2947 44.3999 17.4852 45.6943 17.6936 47.2182L18.0746 50H23.3017H28.5229V45.3811V40.7622L31.2495 40.7518L33.9702 40.7362L33.9881 28.8732L34 17.0155H32.2735H30.547V16.4257C30.547 15.6063 30.3803 15.0844 29.9219 14.4842C29.6064 14.0667 28.9634 13.5709 28.4633 13.3517C27.5941 12.9759 28.3204 12.9968 17.4792 13.002C8.28121 13.002 7.69182 13.0072 7.32866 13.096ZM32.2616 28.8732L32.2437 39.2226H16.9732H1.70268L1.68482 28.9411C1.67887 23.2888 1.68482 18.6334 1.70268 18.5969C1.72054 18.5395 4.73297 18.529 17.003 18.529H32.2735L32.2616 28.8732ZM1.49431 37.9335C1.49431 37.9753 1.32166 38.1005 1.26213 38.1005C1.19664 38.1005 1.17282 37.9857 1.22641 37.9387C1.25617 37.9074 1.49431 37.9074 1.49431 37.9335ZM1.05376 38.0796C1.00018 38.1214 0.958501 38.184 0.958501 38.2101C0.958501 38.2362 0.916827 38.2571 0.8692 38.2571C0.803712 38.2571 0.809666 38.2258 0.910874 38.1266C0.982315 38.0536 1.06566 37.9961 1.09543 37.9961C1.11924 37.9961 1.10138 38.0327 1.05376 38.0796ZM1.61338 38.0744C1.61338 38.1214 1.57766 38.1371 1.51812 38.1162C1.44073 38.0901 1.44073 38.0796 1.50622 38.0431C1.60742 37.9857 1.61338 37.9857 1.61338 38.0744ZM0.893013 38.5441C0.910874 38.6329 0.90492 38.6329 0.815619 38.5598C0.702504 38.4554 0.690597 38.398 0.797759 38.4241C0.833479 38.4398 0.881107 38.492 0.893013 38.5441ZM0.184556 38.8051C0.184556 38.8521 0.24409 38.8729 0.339345 38.8677C0.458414 38.8573 0.523901 38.8938 0.601296 39.0191L0.708457 39.1809L0.386973 39.0295C0.166696 38.9251 0.0654877 38.8416 0.0654877 38.7738C0.0654877 38.7164 0.0952548 38.6851 0.125022 38.7007C0.160742 38.7164 0.184556 38.7633 0.184556 38.8051ZM1.16687 38.8312C1.18473 38.8573 1.24427 38.8677 1.3038 38.8521C1.38715 38.826 1.3931 38.8312 1.31571 38.8782C1.19664 38.9512 1.27403 39.0034 1.44073 38.9617C1.53003 38.9356 1.54789 38.9095 1.49431 38.8834C1.44668 38.8573 1.44668 38.8364 1.51812 38.8155C1.58361 38.7894 1.61338 38.8103 1.61338 38.8834C1.61338 38.9356 1.5598 38.9982 1.49431 39.0139C1.34547 39.0556 1.1252 38.9982 1.16687 38.9304C1.19068 38.9043 1.14306 38.8886 1.06566 38.899C0.964455 38.9043 0.928734 38.8834 0.922781 38.7947C0.916827 38.7007 0.934687 38.6851 1.02399 38.7268C1.08352 38.7581 1.14901 38.7999 1.16687 38.8312ZM0.809666 39.04C0.827526 39.0713 0.803712 39.0765 0.756085 39.0608C0.648923 39.0243 0.631063 38.9878 0.714411 38.9878C0.750131 38.9878 0.791805 39.0086 0.809666 39.04ZM1.01804 39.1391C1.01804 39.1652 0.964455 39.1965 0.893013 39.2122C0.797759 39.2331 0.785852 39.2278 0.845386 39.1652C0.922781 39.0817 1.01804 39.0661 1.01804 39.1391ZM1.17878 39.2905C1.1252 39.3009 1.08948 39.3322 1.10734 39.3583C1.16687 39.4366 1.0359 39.4105 0.958501 39.327C0.893013 39.2592 0.898967 39.2539 0.982315 39.28C1.0359 39.2957 1.07757 39.2853 1.07757 39.2539C1.07757 39.2226 1.11924 39.2174 1.18473 39.2383C1.27999 39.2696 1.27999 39.2748 1.17878 39.2905ZM0.160742 39.7028C0.101208 39.755 0.0476274 39.6767 0.101208 39.6088C0.136929 39.5514 0.148836 39.5514 0.172649 39.6088C0.184556 39.6454 0.178603 39.6871 0.160742 39.7028ZM0.369112 39.8072C0.446507 39.8907 0.440553 39.8959 0.351252 39.828C0.255997 39.7654 0.24409 39.7706 0.24409 39.8541C0.24409 39.9272 0.22623 39.9324 0.172649 39.8854C0.113115 39.8333 0.113115 39.8072 0.184556 39.7706C0.232184 39.7445 0.279811 39.7184 0.279811 39.7184C0.285764 39.7184 0.327438 39.7602 0.369112 39.8072Z" fill-opacity="0.8"/>
<path d="M16.4299 21.1075C16.1141 21.2819 16.051 21.4215 16.028 21.9747L16.0108 22.4732L12.5835 22.4981C9.24799 22.523 9.14465 22.528 8.89205 22.6277C8.5763 22.7573 8.18592 23.1161 8.08258 23.3753C7.9735 23.6494 7.99073 24.1329 8.11129 24.3422C8.1687 24.4369 8.38111 24.746 8.58778 25.0251C8.98391 25.5683 9.15613 25.688 9.55226 25.688C9.95412 25.688 10.2871 25.4437 10.356 25.0948C10.3962 24.8706 10.3158 24.6712 10.0173 24.2874C9.90245 24.1379 9.8106 24.0033 9.8106 23.9834C9.8106 23.9236 15.9993 23.9335 16.0223 23.9933C16.0338 24.0183 16.0338 24.8407 16.0223 25.8126L16.0108 27.577L12.549 27.5919L9.09298 27.6069L8.81168 27.7315C8.08258 28.0555 7.78979 28.833 8.16295 29.4809C8.46722 30.0093 8.96668 30.5924 9.19632 30.6921C9.63263 30.8765 10.1091 30.7021 10.3101 30.2834C10.4249 30.0392 10.3675 29.8298 10.0632 29.4211C9.92542 29.2317 9.8106 29.0673 9.8106 29.0523C9.8106 29.0124 16.0051 29.0224 16.0223 29.0623C16.0338 29.0872 16.0338 30.0591 16.0223 31.2304L16.0051 33.3587L12.549 33.3736C8.76001 33.3886 9.01835 33.3686 8.53037 33.6826C8.14573 33.9268 7.92184 34.4851 8.02517 34.9187C8.0998 35.2128 8.69686 36.1249 8.97242 36.3591C9.42596 36.7429 10.2469 36.5087 10.356 35.9654C10.3962 35.7361 10.3215 35.5517 10.0173 35.138C9.90245 34.9835 9.8106 34.8439 9.8106 34.834C9.8106 34.819 11.2056 34.8091 12.9107 34.8091C14.6158 34.8091 16.0108 34.824 16.0108 34.8439C16.0223 35.8059 16.0682 36.5037 16.1256 36.6083C16.2519 36.8426 16.5045 36.9622 16.9351 36.9921C17.2508 37.0121 17.3657 36.9971 17.5723 36.9124C17.9685 36.7429 17.9857 36.6931 18.0201 35.7062L18.0488 34.834L21.1087 34.819C22.7851 34.814 24.1629 34.829 24.1629 34.8489C24.1629 34.8738 24.0538 35.0383 23.9275 35.2128C23.6405 35.5966 23.5831 35.8657 23.7323 36.1498C23.916 36.5087 24.5016 36.6632 24.8805 36.4588C25.0757 36.3591 25.7876 35.4221 25.9196 35.0932C26.1091 34.6296 25.9368 34.0465 25.512 33.7225C25.0355 33.3587 25.0757 33.3636 21.3441 33.3636H18.0201V31.1955V29.0274H21.0915C22.7793 29.0274 24.1629 29.0423 24.1629 29.0623C24.1629 29.0772 24.0481 29.2567 23.9046 29.456C23.7036 29.7351 23.6462 29.8597 23.6462 30.0292C23.6462 30.5824 24.2777 30.9264 24.8346 30.6821C25.024 30.5974 25.1389 30.4728 25.4661 30.0143C25.9311 29.3613 26 29.2018 26 28.8579C25.9943 28.3595 25.5867 27.8611 25.047 27.6816C24.7427 27.5869 24.6164 27.582 21.3786 27.582H18.0201L18.0316 25.7727L18.0488 23.9684L21.1087 23.9535C22.7851 23.9485 24.1629 23.9634 24.1629 23.9834C24.1629 24.0083 24.0538 24.1728 23.9218 24.3472C23.6405 24.731 23.5773 25.0251 23.7323 25.3092C23.9275 25.663 24.5303 25.7976 24.9092 25.5733C25.1159 25.4537 25.7302 24.6463 25.8909 24.2774C26.2067 23.5796 25.7531 22.7822 24.9264 22.5828C24.4098 22.4582 23.4797 22.4781 23.5716 22.6177C23.5946 22.6476 23.5658 22.6376 23.5027 22.5978C23.4395 22.5529 23.2731 22.523 23.0779 22.523C22.8999 22.518 21.6886 22.513 20.3911 22.508L18.0201 22.4981V21.9847C18.0201 21.3966 17.9397 21.2271 17.601 21.0875C17.3082 20.9629 16.6653 20.9729 16.4299 21.1075ZM22.8425 22.6426C22.8425 22.6825 22.5956 22.847 22.5325 22.847C22.4866 22.847 22.7506 22.6077 22.8023 22.6027C22.8253 22.5978 22.8425 22.6177 22.8425 22.6426ZM23.1984 22.6925C23.1755 22.7423 23.2042 22.7523 23.3075 22.7224C23.4108 22.6974 23.4223 22.7024 23.3592 22.7423C23.2903 22.7822 23.2903 22.8071 23.3477 22.8569C23.3994 22.9018 23.4166 22.9018 23.4166 22.847C23.4166 22.8121 23.4338 22.7921 23.451 22.8121C23.4683 22.827 23.4683 22.8669 23.4453 22.8968C23.4223 22.9317 23.3477 22.9068 23.2329 22.8221C23.141 22.7523 23.0262 22.6974 22.9803 22.6974C22.9343 22.6974 22.8999 22.6825 22.8999 22.6576C22.8999 22.6376 22.9745 22.6227 23.0664 22.6227C23.1812 22.6227 23.2214 22.6426 23.1984 22.6925ZM23.8529 22.7074C23.9562 22.8121 23.9562 22.8121 23.8529 22.7822C23.7725 22.7523 23.7553 22.7622 23.784 22.827C23.8127 22.8968 23.807 22.9018 23.7323 22.847C23.6634 22.7971 23.6577 22.7722 23.7094 22.7473C23.7438 22.7274 23.7553 22.6825 23.7381 22.6526C23.6692 22.5629 23.7381 22.5928 23.8529 22.7074ZM22.5267 23.0862C22.5095 23.1012 22.498 23.0862 22.498 23.0563C22.498 23.0214 22.4636 22.9965 22.4177 22.9965C22.366 22.9965 22.3488 22.9616 22.366 22.8968C22.3947 22.8021 22.4004 22.8021 22.4751 22.9267C22.521 23.0015 22.544 23.0713 22.5267 23.0862ZM24.0481 22.8968C24.0481 22.9217 24.0366 22.9467 24.0251 22.9467C24.0079 22.9467 23.9792 22.9217 23.962 22.8968C23.9448 22.8669 23.9562 22.847 23.9849 22.847C24.0194 22.847 24.0481 22.8669 24.0481 22.8968ZM22.4177 23.1211C22.3832 23.2058 22.4923 23.4451 22.5669 23.4451C22.5899 23.4451 22.6129 23.48 22.6129 23.5198C22.6129 23.5747 22.5842 23.5697 22.4923 23.4899C22.3545 23.3703 22.2741 23.0463 22.3832 23.0463C22.4234 23.0463 22.4406 23.0812 22.4177 23.1211ZM23.5371 23.1809C23.4912 23.2557 23.4797 23.2557 23.474 23.1909C23.474 23.1061 23.5314 23.0314 23.5773 23.0663C23.5888 23.0812 23.5716 23.1311 23.5371 23.1809ZM21.5163 23.3005C21.5221 23.2607 21.5336 23.2407 21.5508 23.2557C21.568 23.2706 21.5623 23.3205 21.545 23.3653C21.5163 23.4351 21.4934 23.4401 21.4589 23.3853C21.4302 23.3504 21.413 23.2756 21.413 23.2208C21.4187 23.141 21.4245 23.141 21.4647 23.2457C21.4876 23.3155 21.5106 23.3404 21.5163 23.3005ZM21.8436 23.3205C21.7804 23.3603 21.7632 23.3952 21.7976 23.3952C21.8378 23.3952 21.8665 23.4301 21.8665 23.47C21.8665 23.5298 21.8493 23.5298 21.7632 23.455C21.6713 23.3803 21.6713 23.3653 21.7517 23.3105C21.7976 23.2756 21.8665 23.2507 21.8952 23.2507C21.9297 23.2507 21.901 23.2806 21.8436 23.3205ZM23.2501 23.4002C23.1755 23.4501 23.1468 23.4949 23.1812 23.4949C23.2214 23.4949 23.2329 23.5198 23.2157 23.5448C23.1869 23.5846 23.1468 23.5796 23.0894 23.5398C23.0205 23.4849 23.0262 23.465 23.1525 23.4002C23.2329 23.3554 23.3018 23.3005 23.3018 23.2756C23.3018 23.2507 23.319 23.2457 23.3477 23.2656C23.3707 23.2856 23.3247 23.3454 23.2501 23.4002ZM23.3936 23.4351C23.296 23.5149 23.2903 23.5149 23.3649 23.4102C23.4051 23.3504 23.451 23.3105 23.4683 23.3255C23.4855 23.3354 23.451 23.3853 23.3936 23.4351ZM22.7506 23.4251C22.8884 23.5448 22.8597 23.5747 22.7162 23.465C22.6416 23.4152 22.5727 23.3653 22.5612 23.3603C22.5497 23.3504 22.5669 23.3454 22.6014 23.3454C22.6358 23.3454 22.7047 23.3803 22.7506 23.4251ZM20.8159 23.5049C20.7987 23.5448 20.7815 23.5298 20.7815 23.475C20.7758 23.4202 20.793 23.3902 20.8102 23.4102C20.8274 23.4251 20.8332 23.47 20.8159 23.5049ZM22.0962 23.8588C22.1651 23.8787 22.1593 23.8887 22.079 23.8887C22.0215 23.8937 21.9067 23.8239 21.8264 23.7441C21.746 23.6594 21.6426 23.5996 21.591 23.6046C21.545 23.6145 21.4934 23.5846 21.4819 23.5448C21.4589 23.48 21.4647 23.48 21.5163 23.5448C21.568 23.6096 21.5795 23.6046 21.5795 23.5298C21.5795 23.46 21.6312 23.48 21.7976 23.6345C21.9125 23.7391 22.0502 23.8388 22.0962 23.8588ZM22.8425 23.7541C22.8425 23.784 22.8023 23.779 22.7564 23.7441C22.7105 23.7092 22.6703 23.6594 22.6703 23.6345C22.6703 23.6046 22.7105 23.6096 22.7564 23.6444C22.8023 23.6793 22.8425 23.7292 22.8425 23.7541ZM23.0434 23.794L23.1582 23.9186L23.0319 23.8239C22.9573 23.769 22.8999 23.7043 22.8999 23.6793C22.8999 23.6494 22.9056 23.6395 22.9171 23.6494C22.9229 23.6594 22.9803 23.7242 23.0434 23.794ZM21.3384 23.8338C21.3613 23.9036 21.1432 23.9136 21.0915 23.8438C21.0685 23.8139 21.0973 23.8089 21.1547 23.8289C21.2293 23.8538 21.2408 23.8438 21.2063 23.794C21.1776 23.7541 21.1891 23.7391 21.235 23.7541C21.281 23.7641 21.3269 23.8039 21.3384 23.8338ZM17.0155 26.3359C17.1073 26.4157 17.159 26.4854 17.1303 26.4854C17.1073 26.4854 17.0499 26.4456 17.0097 26.4007C16.9695 26.3509 16.9179 26.3259 16.8949 26.3459C16.8203 26.4157 17.0556 26.5901 17.1819 26.5552C17.2795 26.5353 17.2853 26.5403 17.2164 26.5801C17.1418 26.625 17.1418 26.635 17.2221 26.635C17.2738 26.635 17.4001 26.7197 17.5034 26.8194C17.6355 26.939 17.6642 26.9888 17.5895 26.9639C17.5264 26.944 17.4632 26.954 17.4345 26.9938C17.4058 27.0337 17.4001 26.9988 17.4231 26.9091C17.446 26.7945 17.4403 26.7795 17.3944 26.8343C17.3427 26.8991 17.3312 26.8991 17.3312 26.8194C17.3312 26.7745 17.2968 26.7346 17.2566 26.7346C17.1475 26.7346 16.6825 26.301 16.7227 26.2412C16.7858 26.1565 16.8375 26.1764 17.0155 26.3359ZM17.9053 26.2911C17.9053 26.2512 17.9225 26.2312 17.9397 26.2512C17.957 26.2661 17.9455 26.321 17.911 26.3708C17.8766 26.4256 17.8479 26.4356 17.8479 26.3957C17.8479 26.3608 17.8249 26.3459 17.7905 26.3608C17.756 26.3758 17.7503 26.3558 17.7733 26.311C17.802 26.2462 17.8134 26.2412 17.8536 26.296C17.8938 26.3509 17.9053 26.3459 17.9053 26.2911ZM17.7847 26.5153C17.8077 26.5004 17.8307 26.5652 17.8364 26.6499C17.8479 26.7346 17.8766 26.8293 17.9053 26.8543C17.9397 26.8842 17.9627 26.949 17.9627 27.0038C17.9627 27.0935 17.9455 27.0835 17.8766 26.9639C17.8307 26.8892 17.7905 26.7795 17.7905 26.7297C17.7905 26.6798 17.7675 26.625 17.7331 26.61C17.7044 26.5951 17.6757 26.5403 17.6814 26.4954C17.6814 26.4406 17.6929 26.4356 17.7158 26.4755C17.7273 26.5054 17.7618 26.5253 17.7847 26.5153ZM17.7273 26.7695C17.7273 26.8941 17.7216 26.8941 17.6814 26.8094C17.6527 26.7546 17.6412 26.6948 17.6584 26.6699C17.7044 26.6001 17.7331 26.635 17.7273 26.7695ZM17.2164 26.8343C17.2164 26.8593 17.1877 26.8842 17.1532 26.8842C17.1245 26.8842 17.1131 26.8593 17.1303 26.8343C17.1475 26.8044 17.1762 26.7845 17.1934 26.7845C17.2049 26.7845 17.2164 26.8044 17.2164 26.8343ZM16.9868 26.934C16.9351 26.9589 16.9351 26.9789 16.981 26.9888C17.0155 26.9988 16.9982 27.0337 16.9408 27.0686C16.8547 27.1134 16.8375 27.1085 16.8432 27.0387C16.8547 26.9141 16.9293 26.8293 16.9982 26.8642C17.0384 26.8842 17.0327 26.9091 16.9868 26.934ZM17.314 26.9639C17.2968 26.9789 17.2451 26.9839 17.2049 26.9689C17.159 26.954 17.1762 26.939 17.2394 26.939C17.3025 26.934 17.3369 26.949 17.314 26.9639ZM16.7514 27.2032C16.7399 27.3278 16.7169 27.4175 16.6882 27.4025C16.6653 27.3876 16.6423 27.4125 16.6423 27.4524C16.6423 27.4922 16.671 27.5421 16.6997 27.557C16.7342 27.572 16.7571 27.567 16.7571 27.5371C16.7571 27.5072 16.8145 27.5371 16.8892 27.5969C17.0384 27.7215 17.0384 27.7614 16.8892 27.7066C16.8317 27.6816 16.7629 27.6617 16.7342 27.6617C16.7054 27.6567 16.6423 27.582 16.6021 27.4922C16.5562 27.3926 16.5504 27.3377 16.5849 27.3577C16.6251 27.3776 16.6366 27.3427 16.6136 27.248C16.5906 27.1334 16.5906 27.1284 16.6366 27.2081C16.6825 27.2929 16.694 27.2879 16.694 27.1434C16.6997 27.0586 16.7112 26.9839 16.7284 26.9839C16.7456 26.9839 16.7571 27.0835 16.7514 27.2032ZM17.7158 27.1832C17.6986 27.2331 17.7216 27.3028 17.7675 27.3377C17.8134 27.3676 17.8479 27.4225 17.8479 27.4524C17.8479 27.4823 17.8192 27.4723 17.7905 27.4324C17.7388 27.3676 17.7273 27.3676 17.6814 27.4275C17.6412 27.4773 17.6297 27.4474 17.6412 27.3278C17.6642 27.1035 17.6699 27.0835 17.7101 27.0835C17.7331 27.0835 17.7331 27.1284 17.7158 27.1832ZM17.6871 27.6418C17.647 27.6767 17.6183 27.6816 17.6183 27.6517C17.6183 27.582 17.6871 27.5222 17.7273 27.557C17.7388 27.572 17.7216 27.6119 17.6871 27.6418ZM17.3886 27.7763C17.5264 27.8112 17.5264 27.8112 17.3369 27.8461C17.2279 27.8661 17.1303 27.871 17.1131 27.8561C17.0958 27.8411 17.1303 27.8312 17.1934 27.8262C17.2968 27.8262 17.2968 27.8212 17.1877 27.7813C17.0499 27.7315 17.1819 27.7265 17.3886 27.7763ZM17.0269 27.8112C17.0097 27.8262 16.958 27.8312 16.9179 27.8162C16.8719 27.8013 16.8892 27.7863 16.9523 27.7863C17.0155 27.7813 17.0499 27.7963 17.0269 27.8112Z" fill-opacity="0.8"/>
</svg>
