<svg width="32" height="32" viewBox="0 0 32 32" fill="none" xmlns="http://www.w3.org/2000/svg">
<path d="M30.5588 0.1553C30.5136 0.156651 30.4685 0.160454 30.4237 0.166693H18.9165C18.7509 0.16435 18.5864 0.194952 18.4327 0.256719C18.279 0.318486 18.1391 0.410187 18.0211 0.526493C17.9032 0.642798 17.8095 0.781389 17.7456 0.93421C17.6816 1.08703 17.6487 1.25104 17.6487 1.41669C17.6487 1.58235 17.6816 1.74635 17.7456 1.89918C17.8095 2.052 17.9032 2.19059 18.0211 2.30689C18.1391 2.4232 18.279 2.5149 18.4327 2.57667C18.5864 2.63843 18.7509 2.66904 18.9165 2.66669H27.5656L14.6994 15.5329C14.5794 15.6481 14.4836 15.7861 14.4177 15.9387C14.3517 16.0914 14.3168 16.2557 14.3151 16.422C14.3134 16.5883 14.345 16.7532 14.4078 16.9072C14.4707 17.0612 14.5636 17.201 14.6812 17.3186C14.7988 17.4362 14.9387 17.5292 15.0927 17.5921C15.2466 17.6549 15.4116 17.6864 15.5779 17.6847C15.7442 17.683 15.9085 17.6482 16.0612 17.5822C16.2138 17.5162 16.3518 17.4205 16.467 17.3005L29.3332 4.43427V13.0834C29.3308 13.249 29.3614 13.4135 29.4232 13.5672C29.485 13.7209 29.5767 13.8608 29.693 13.9787C29.8093 14.0967 29.9479 14.1904 30.1007 14.2543C30.2535 14.3182 30.4175 14.3512 30.5832 14.3512C30.7488 14.3512 30.9128 14.3182 31.0657 14.2543C31.2185 14.1904 31.3571 14.0967 31.4734 13.9787C31.5897 13.8608 31.6814 13.7209 31.7431 13.5672C31.8049 13.4135 31.8355 13.249 31.8332 13.0834V1.57457C31.8578 1.39473 31.843 1.21167 31.7897 1.03814C31.7365 0.864602 31.6461 0.704747 31.5248 0.569682C31.4035 0.434618 31.2543 0.327585 31.0874 0.256025C30.9206 0.184465 30.7402 0.150093 30.5588 0.1553ZM6.4165 2.66669C2.97942 2.66669 0.166504 5.47961 0.166504 8.9167V25.5834C0.166504 29.0205 2.97942 31.8334 6.4165 31.8334H23.0832C26.5203 31.8334 29.3332 29.0205 29.3332 25.5834V17.25C29.3355 17.0844 29.3049 16.9199 29.2431 16.7662C29.1814 16.6125 29.0897 16.4726 28.9734 16.3547C28.8571 16.2367 28.7185 16.143 28.5657 16.0791C28.4128 16.0152 28.2488 15.9822 28.0832 15.9822C27.9175 15.9822 27.7535 16.0152 27.6007 16.0791C27.4479 16.143 27.3093 16.2367 27.193 16.3547C27.0767 16.4726 26.985 16.6125 26.9232 16.7662C26.8614 16.9199 26.8308 17.0844 26.8332 17.25V25.5834C26.8332 27.6696 25.1694 29.3334 23.0832 29.3334H6.4165C4.33026 29.3334 2.6665 27.6696 2.6665 25.5834V8.9167C2.6665 6.83045 4.33026 5.16669 6.4165 5.16669H14.7498C14.9155 5.16904 15.0799 5.13844 15.2336 5.07667C15.3874 5.0149 15.5273 4.9232 15.6452 4.80689C15.7632 4.69059 15.8568 4.552 15.9208 4.39918C15.9847 4.24635 16.0176 4.08235 16.0176 3.91669C16.0176 3.75104 15.9847 3.58703 15.9208 3.43421C15.8568 3.28139 15.7632 3.1428 15.6452 3.02649C15.5273 2.91019 15.3874 2.81849 15.2336 2.75672C15.0799 2.69495 14.9155 2.66435 14.7498 2.66669H6.4165Z" fill="white"/>
</svg>
