<svg viewBox="0 0 250 70" fill="none" xmlns="http://www.w3.org/2000/svg">
<path d="M30.095 35.7978L1 24.9783V82H249V4.80144L245.536 3.92419L226.832 21.7617L219.212 20.0072L195.659 36.6751L192.888 38.1372L168.989 18.5451L161.715 21.7617L148.553 3.92419H146.128L130.888 18.5451H129.156L118.765 29.657L106.642 42.8159L103.525 44.5704L96.5978 37.8448L82.0503 3.33935L78.5866 1L73.0447 3.33935L63 22.3466L59.1899 24.9783L51.5698 20.8845L44.6425 22.3466L30.095 35.7978Z" fill="url(#paint0_linear_4628_4318)"/>
<path d="M1 25.3969L26.7344 35.1456C29.3758 36.1462 32.3612 35.1696 34.1293 32.9668C38.7666 27.1894 48.1764 17.6127 55.9565 23.339C66.7391 31.2752 67.3678 -1.06928 79.9565 1.29433C86.2174 2.46984 87.5365 17.5323 93.1739 30.0996C96.9303 38.4736 98.7911 43.1428 102.992 44.4281C104.655 44.9368 106.35 44.0422 107.49 42.729L127.868 19.2461C128.324 18.7201 129.088 18.5879 129.695 18.9297V18.9297C130.302 19.2721 131.067 19.1387 131.523 18.6109L141.513 7.04828C144.127 4.02311 148.913 4.35221 151.088 7.70672L157.879 18.1804C159.478 20.6468 162.629 21.5914 165.321 20.4117L166.452 19.9163C168.634 18.9601 171.175 19.3856 172.927 21.0004L189.314 36.1074C191.448 38.0747 194.684 38.2324 196.999 36.4819L216.726 21.5661C218.407 20.2955 220.63 19.9994 222.585 20.7858L222.858 20.8956C225.19 21.8341 227.86 21.2192 229.546 19.3552L241.401 6.25533C243.356 4.09415 246.617 3.7312 249 5.4094V5.4094" stroke="url(#paint1_linear_4628_4318)" stroke-width="2"/>
<defs>
<linearGradient id="paint0_linear_4628_4318" x1="125" y1="1" x2="125" y2="82" gradientUnits="userSpaceOnUse">
<stop stop-color="#00E0FF" stop-opacity="0.1"/>
<stop offset="1" stop-color="#0A5B96" stop-opacity="0"/>
</linearGradient>
<linearGradient id="paint1_linear_4628_4318" x1="249" y1="0.999967" x2="2.88695" y2="43.5723" gradientUnits="userSpaceOnUse">
<stop stop-color="#00FF19"/>
<stop offset="0.935417" stop-color="#00E0FF"/>
</linearGradient>
</defs>
</svg>
