<svg width="17" height="19" viewBox="0 0 17 19" fill="none" xmlns="http://www.w3.org/2000/svg">
<path d="M16.8327 5.33333H13.9056C13.4369 4.52083 12.791 3.82292 12.0098 3.29167L13.7077 1.59375L12.2389 0.125L9.97852 2.38542C9.49935 2.27083 9.00977 2.20833 8.49935 2.20833C7.98893 2.20833 7.49935 2.27083 7.0306 2.38542L4.75977 0.125L3.29102 1.59375L4.97852 3.29167C4.20768 3.82292 3.56185 4.52083 3.0931 5.33333H0.166016V7.41667H2.3431C2.29102 7.76042 2.24935 8.10417 2.24935 8.45833V9.5H0.166016V11.5833H2.24935V12.625C2.24935 12.9792 2.29102 13.3229 2.3431 13.6667H0.166016V15.75H3.0931C4.17643 17.6146 6.18685 18.875 8.49935 18.875C10.8118 18.875 12.8223 17.6146 13.9056 15.75H16.8327V13.6667H14.6556C14.7077 13.3229 14.7493 12.9792 14.7493 12.625V11.5833H16.8327V9.5H14.7493V8.45833C14.7493 8.10417 14.7077 7.76042 14.6556 7.41667H16.8327V5.33333ZM10.5827 13.6667H6.41602V11.5833H10.5827V13.6667ZM10.5827 9.5H6.41602V7.41667H10.5827V9.5Z" fill="white"/>
</svg>
