<svg width="19" height="19" viewBox="0 0 19 19" fill="none" xmlns="http://www.w3.org/2000/svg">
<path fill-rule="evenodd" clip-rule="evenodd" d="M9.5 18.875C14.6777 18.875 18.875 14.6777 18.875 9.5C18.875 4.32233 14.6777 0.125 9.5 0.125C4.32233 0.125 0.125 4.32233 0.125 9.5C0.125 14.6777 4.32233 18.875 9.5 18.875ZM14.4349 7.01518C14.7885 6.59091 14.7311 5.96034 14.3069 5.60678C13.8826 5.25321 13.252 5.31054 12.8984 5.73482L9.09216 10.3024C8.74544 10.7184 8.55053 10.9488 8.39491 11.0903L8.38896 11.0957L8.38255 11.0909C8.21476 10.964 7.99979 10.7522 7.61683 10.3693L6.04044 8.79289C5.64992 8.40237 5.01675 8.40237 4.62623 8.79289C4.2357 9.18342 4.2357 9.81658 4.62623 10.2071L6.20262 11.7835L6.24344 11.8243L6.24345 11.8243C6.56994 12.151 6.88403 12.4652 7.17627 12.6861C7.50364 12.9337 7.93235 13.1665 8.48176 13.1415C9.03117 13.1166 9.43706 12.846 9.74067 12.5698C10.0117 12.3233 10.2961 11.9819 10.5916 11.6271L10.5916 11.6271L10.6286 11.5827L14.4349 7.01518Z"/>
</svg>
