<svg width="18" height="19" viewBox="0 0 18 19" fill="none" xmlns="http://www.w3.org/2000/svg">
<path d="M15.5 8.99984V3.99984C15.5 3.08317 14.75 2.33317 13.8333 2.33317H13V0.666504H11.3333V2.33317H4.66667V0.666504H3V2.33317H2.16667C1.25 2.33317 0.5 3.08317 0.5 3.99984V15.6665C0.5 16.5832 1.25 17.3332 2.16667 17.3332H8V15.6665H2.16667V7.33317H13.8333V8.99984H15.5ZM11.0333 15.6665C11.3917 16.8748 12.5083 17.7498 13.8333 17.7498C15.4417 17.7498 16.75 16.4415 16.75 14.8332C16.75 13.2248 15.4417 11.9165 13.8333 11.9165C13.0417 11.9165 12.3167 12.2332 11.7917 12.7498H13V13.9998H9.66667V10.6665H10.9167V11.8582C11.6667 11.1248 12.7 10.6665 13.8333 10.6665C16.1333 10.6665 18 12.5332 18 14.8332C18 17.1332 16.1333 18.9998 13.8333 18.9998C11.8167 18.9998 10.1333 17.5665 9.75 15.6665H11.0333Z" fill="#99FFDA"/>
</svg>
