<svg width="21" height="21" viewBox="0 0 21 21" fill="none" xmlns="http://www.w3.org/2000/svg">
<path d="M12.7541 0.341347C12.1666 0.605722 11.6789 1.25822 11.6789 1.78135V1.9501H10.5686C9.08219 1.9501 9.18207 1.86572 9.18207 3.10322C9.18207 4.0201 9.18794 4.0426 9.32307 4.14947C9.45232 4.25072 9.61094 4.25635 13.5002 4.25635C17.3895 4.25635 17.5481 4.25072 17.6773 4.14947C17.8125 4.0426 17.8183 4.0201 17.8183 3.10322C17.8183 1.86572 17.9182 1.9501 16.4377 1.9501H15.3391L15.3038 1.66885C15.2333 1.10635 14.8045 0.583222 14.1993 0.324472C13.8175 0.155722 13.1595 0.161347 12.7541 0.341347ZM13.8057 1.06135C14.076 1.1401 14.3521 1.41572 14.4461 1.71385C14.5871 2.16947 14.2522 2.7151 13.747 2.84447C13.0478 3.0301 12.3546 2.36635 12.5543 1.71385C12.6836 1.3201 13.0596 1.02197 13.465 0.999472C13.5237 0.993847 13.6765 1.02197 13.8057 1.06135Z" />
<path d="M7.52531 2.02895C7.20806 2.12457 6.83793 2.38895 6.62643 2.66457C6.29743 3.09207 6.27393 3.28895 6.27393 5.53332C6.27393 6.65832 6.29155 7.5752 6.30918 7.5752C6.3268 7.5752 6.45605 7.50207 6.59705 7.40645C6.73805 7.31645 6.92018 7.2152 7.00243 7.18145L7.15518 7.1252V5.29145C7.15518 3.7052 7.16693 3.42957 7.24918 3.26082C7.38431 2.99082 7.70743 2.79395 8.02468 2.79395C8.30669 2.79395 8.30669 2.79395 8.34781 2.29895L8.37719 1.9502L8.07756 1.95582C7.90718 1.95582 7.66043 1.98957 7.52531 2.02895Z" />
<path d="M18.6347 2.07394C18.6523 2.14707 18.67 2.32144 18.67 2.46769V2.73207L18.952 2.76582C19.3045 2.81644 19.6217 3.01332 19.7451 3.26082C19.8391 3.44082 19.845 4.06519 19.845 10.5733V17.6833L19.7098 17.8746C19.6393 17.9758 19.4748 18.1221 19.3456 18.1896L19.1106 18.3189H14.9276H10.7387L10.4743 18.6958L10.21 19.0783L14.769 19.0952L19.3338 19.1064L19.6335 18.9771C20.0623 18.7914 20.3443 18.5327 20.5323 18.1614L20.6968 17.8408L20.7145 10.6746C20.7262 4.21144 20.7203 3.47457 20.6322 3.19332C20.409 2.44519 19.7098 1.95019 18.8873 1.95019C18.6171 1.95019 18.5995 1.95582 18.6347 2.07394Z" />
<path d="M9.00586 5.84244C8.99411 5.88182 8.97061 6.02807 8.96473 6.16869L8.94711 6.42182H8.68273C8.30086 6.42744 8.27148 6.46119 8.27148 6.89994C8.27148 7.34432 8.33023 7.40619 8.73561 7.40619H8.97061L8.98823 7.69869L9.00586 7.99682L9.40536 8.01369C9.89298 8.03619 9.97523 7.97994 9.97523 7.65369C9.97523 7.40619 9.97523 7.40619 10.1867 7.40619C10.5627 7.40619 10.6215 7.33869 10.6215 6.89994C10.6215 6.46119 10.5804 6.41057 10.1985 6.42182H9.97523V6.16869C9.97523 6.02807 9.94586 5.88182 9.90473 5.84244C9.80486 5.74682 9.04111 5.75244 9.00586 5.84244Z" />
<path d="M11.949 5.86489C11.8667 5.94364 11.855 6.52301 11.855 11.4055C11.855 15.0618 11.8726 16.9011 11.9137 16.9743C11.996 17.1093 12.184 17.1149 12.2662 16.9743C12.3015 16.9011 12.325 15.0224 12.325 11.4111C12.325 6.53426 12.3132 5.94364 12.231 5.86489C12.1194 5.75239 12.0606 5.75239 11.949 5.86489Z" />
<path d="M13.5529 6.7086C13.5 6.77048 13.4941 6.8211 13.5411 6.8886C13.594 6.97298 13.8408 6.98423 16.1026 7.0011C18.5819 7.01235 18.6054 7.01235 18.6406 6.89985C18.7346 6.6186 18.717 6.6186 16.085 6.6186C13.9171 6.6186 13.6234 6.62985 13.5529 6.7086Z" />
<path d="M2.06162 7.78891C2.13212 9.06579 2.49049 9.80829 3.23074 10.1908C3.48924 10.3258 3.63024 10.3595 4.0415 10.3764C4.31762 10.3877 4.6525 10.3708 4.78762 10.337C5.02262 10.2752 5.04612 10.2527 5.13425 9.96579C5.33987 9.26829 5.2165 8.57079 4.79937 8.11516C4.31762 7.59204 3.62437 7.33329 2.25549 7.15891L2.02637 7.13079L2.06162 7.78891Z" />
<path d="M7.1787 8.01391C6.67933 8.28391 6.1917 8.80704 5.85682 9.44266C5.66295 9.81391 5.42207 10.5733 5.37507 10.967C5.35157 11.2145 5.36332 11.2483 5.4867 11.2989C5.7452 11.4114 5.90382 11.2877 5.9802 10.9108C6.2152 9.77454 6.58533 9.18391 7.5312 8.43579C7.71333 8.28954 7.72508 8.17704 7.56645 8.02516C7.42545 7.89016 7.4137 7.89016 7.1787 8.01391Z" />
<path d="M13.6058 8.19928C13.4648 8.2724 13.4707 8.45803 13.6117 8.53115C13.688 8.5649 14.5693 8.5874 16.085 8.5874C17.6008 8.5874 18.482 8.5649 18.5584 8.53115C18.6818 8.46365 18.7053 8.30615 18.5995 8.2049C18.5055 8.1149 13.7585 8.10928 13.6058 8.19928Z" />
<path d="M8.06584 9.82487C7.97772 10.0892 8.07759 10.1117 9.4641 10.0949C10.5804 10.078 10.7625 10.0667 10.8154 9.98799C10.8506 9.93737 10.8565 9.85299 10.8389 9.80237C10.8036 9.72362 10.645 9.71237 9.45235 9.71237C8.14222 9.71237 8.10109 9.71799 8.06584 9.82487Z" />
<path d="M13.5296 9.8252C13.4356 10.1064 13.4473 10.1064 16.1028 10.0952C18.3001 10.0783 18.5762 10.0671 18.6291 9.98832C18.6643 9.9377 18.6702 9.85332 18.6526 9.8027C18.6173 9.72395 18.3764 9.7127 16.0911 9.7127C13.6001 9.7127 13.5648 9.7127 13.5296 9.8252Z" />
<path d="M2.57251 11.3214C2.36101 11.3607 2.03202 11.4732 1.83814 11.5632C0.0638902 12.4014 -0.33561 14.8145 0.89814 17.2782C1.92039 19.3145 3.60651 20.4901 5.19864 20.282C5.46889 20.2482 5.77439 20.2426 6.02114 20.2763C6.42064 20.327 6.95526 20.2876 7.31364 20.1863C8.97039 19.6913 10.5566 17.6438 10.9796 15.4501C11.0795 14.9101 11.0678 13.9764 10.9444 13.5095C10.7505 12.7614 10.351 12.1707 9.81639 11.8164C9.17014 11.3889 8.77651 11.2707 7.94814 11.2707C7.26664 11.2707 6.83776 11.3664 6.09751 11.6926L5.59814 11.912L5.38664 11.7939C4.82264 11.4957 3.79451 11.2257 3.23051 11.237C3.07776 11.237 2.78401 11.2764 2.57251 11.3214Z" />
<path d="M13.5529 11.3216C13.5 11.3834 13.4941 11.4341 13.5411 11.5015C13.594 11.5859 13.8349 11.5972 16.1203 11.5972C18.4996 11.5972 18.6406 11.5915 18.6583 11.4959C18.7111 11.2316 18.6935 11.2316 16.085 11.2316C13.9171 11.2316 13.6234 11.2428 13.5529 11.3216Z" />
<path d="M13.6058 12.812C13.4648 12.8852 13.4707 13.0708 13.6117 13.1439C13.688 13.1777 14.5693 13.2002 16.085 13.2002C17.6008 13.2002 18.482 13.1777 18.5584 13.1439C18.6171 13.1102 18.67 13.0371 18.67 12.9752C18.67 12.9133 18.6171 12.8402 18.5584 12.8064C18.3998 12.7277 13.7468 12.7333 13.6058 12.812Z" />
<path d="M13.5293 14.4375C13.4353 14.7188 13.4529 14.7188 16.0849 14.7188C18.7169 14.7188 18.7346 14.7188 18.6406 14.4375C18.6053 14.325 18.5701 14.325 16.0849 14.325C13.5998 14.325 13.5645 14.325 13.5293 14.4375Z" />
<path d="M13.5529 15.9339C13.5 15.9957 13.4941 16.0464 13.5411 16.1139C13.594 16.1982 13.8349 16.2095 16.1203 16.2095C18.4996 16.2095 18.6406 16.2038 18.6583 16.1082C18.7111 15.8439 18.6935 15.8439 16.085 15.8439C13.9171 15.8439 13.6234 15.8551 13.5529 15.9339Z" />
</svg>
