<svg width="32" height="32" viewBox="0 0 32 32" fill="none" xmlns="http://www.w3.org/2000/svg">
<path d="M23.2676 9.00199L12.8334 19.4362L7.14925 13.7678L4.91675 16.0003L12.8334 23.917L25.5001 11.2503L23.2676 9.00199ZM16.0001 0.166992C7.26008 0.166992 0.166748 7.26033 0.166748 16.0003C0.166748 24.7403 7.26008 31.8337 16.0001 31.8337C24.7401 31.8337 31.8334 24.7403 31.8334 16.0003C31.8334 7.26033 24.7401 0.166992 16.0001 0.166992ZM16.0001 28.667C9.00175 28.667 3.33342 22.9987 3.33342 16.0003C3.33342 9.00199 9.00175 3.33366 16.0001 3.33366C22.9984 3.33366 28.6668 9.00199 28.6668 16.0003C28.6668 22.9987 22.9984 28.667 16.0001 28.667Z" fill="#FFFEFE"/>
</svg>
