<svg width="20" height="29" viewBox="0 0 20 29" fill="none" xmlns="http://www.w3.org/2000/svg">
<path d="M19.1668 9.83317C19.1668 4.7665 15.0668 0.666504 10.0002 0.666504C4.9335 0.666504 0.833496 4.7665 0.833496 9.83317C0.833496 14.3332 4.06683 18.0498 8.3335 18.8332V22.3332H5.00016V25.6665H8.3335V28.9998H11.6668V25.6665H15.0002V22.3332H11.6668V18.8332C15.9335 18.0498 19.1668 14.3332 19.1668 9.83317ZM4.16683 9.83317C4.16683 6.6165 6.7835 3.99984 10.0002 3.99984C13.2168 3.99984 15.8335 6.6165 15.8335 9.83317C15.8335 13.0498 13.2168 15.6665 10.0002 15.6665C6.7835 15.6665 4.16683 13.0498 4.16683 9.83317Z" fill="#FF7BEA"/>
</svg>
