<svg width="54" height="47" viewBox="0 0 54 47" fill="none" xmlns="http://www.w3.org/2000/svg">
<path d="M13.2312 0.102734C8.14283 0.733635 3.75048 3.70527 1.53079 8.03015C-0.895823 12.7299 -0.42555 18.6915 2.85696 24.6622L3.37426 25.604H6.41222H9.44078L11.0115 23.7295C11.8768 22.6963 12.6669 21.8186 12.7609 21.7637C13.0431 21.6174 13.4663 21.654 13.7203 21.8551C13.8519 21.9466 14.4821 22.6049 15.1123 23.3181C15.7518 24.0221 16.288 24.589 16.2974 24.5708C16.3068 24.5616 17.3602 20.8493 18.6393 16.3233C19.9091 11.7973 21.0189 7.87471 21.0942 7.60041C21.2823 6.95122 21.5738 6.67691 22.0723 6.67691C22.8906 6.67691 22.5614 5.60712 26.5869 21.2608L30.1986 35.3418L31.6847 28.0727C33.152 20.8951 33.1802 20.8036 33.4529 20.5476C33.8009 20.2459 34.2618 20.2184 34.6004 20.4836C34.7415 20.5842 35.3716 21.6814 36.1241 23.1352L37.4126 25.604H44.0247H50.6367L51.2575 24.4336C54.8127 17.7131 54.9162 11.4132 51.5396 6.45747C50.6743 5.17738 48.8967 3.4584 47.5329 2.57148C45.0687 0.989655 42.4446 0.148453 39.5571 0.0295868C36.2181 -0.107567 33.0955 0.806786 30.4808 2.6812C29.6625 3.26639 28.0824 4.8025 27.5275 5.55226C27.3018 5.87229 27.0572 6.1283 27.0008 6.1283C26.9444 6.1283 26.6716 5.82657 26.3894 5.46083C25.3172 4.06187 23.6901 2.6812 22.0253 1.74857C19.5234 0.358753 16.1939 -0.263004 13.2312 0.102734Z" fill="#00FF66" fill-opacity="1"/>
<path d="M19.9667 18.5911C17.399 27.7346 17.6153 27.0306 17.2485 27.25C16.5995 27.6341 16.3926 27.5061 14.6902 25.6133C13.919 24.7539 13.2606 24.0498 13.2324 24.0498C13.1948 24.0498 12.5928 24.7447 11.878 25.5951C11.1726 26.4454 10.5236 27.1952 10.439 27.2683C10.3261 27.3598 9.61128 27.3963 7.41981 27.4329L4.56055 27.4786L5.36942 28.585C9.24447 33.8699 15.2734 39.3012 23.0141 44.5038C24.9892 45.8205 26.8609 47 27.002 47C27.1431 47 29.9459 45.2079 31.8082 43.9369C36.0406 41.0384 39.4548 38.3137 42.6151 35.2963C45.2392 32.7819 47.2708 30.5051 48.8791 28.2375L49.4528 27.4329H43.0477C37.5455 27.4329 36.605 27.4146 36.3698 27.2958C36.1629 27.186 35.9184 26.8203 35.2788 25.5859L34.4511 24.0041L32.8428 31.8858C31.9587 36.2198 31.178 39.8772 31.1216 40.0052C30.8582 40.5538 29.9553 40.6361 29.5885 40.1424C29.4756 39.9961 28.046 34.5831 25.7416 25.6042C23.7195 17.7408 22.0547 11.2946 22.0453 11.2855C22.0359 11.2763 21.0954 14.5589 19.9667 18.5911Z" fill="#00FF66" fill-opacity="1"/>
</svg>
