<svg width="28" height="31" viewBox="0 0 28 31" fill="none" xmlns="http://www.w3.org/2000/svg">
<path d="M17.8957 7.02099C17.8957 5.72599 20.2082 3.16683 20.2082 3.16683C20.2082 3.16683 22.5207 5.72599 22.5207 7.02099C22.5207 8.30058 21.4878 9.33349 20.2082 9.33349C18.9286 9.33349 17.8957 8.30058 17.8957 7.02099ZM24.0623 20.1252C26.1898 20.1252 27.9165 18.3985 27.9165 16.271C27.9165 13.6964 24.0623 9.33349 24.0623 9.33349C24.0623 9.33349 20.2082 13.6964 20.2082 16.271C20.2082 18.3985 21.9348 20.1252 24.0623 20.1252ZM14.0415 18.5835H10.9582V15.5002H7.87484V18.5835H4.79151V21.6668H7.87484V24.7502H10.9582V21.6668H14.0415V18.5835ZM18.6665 15.5002V30.9168H0.166504V15.5002C0.166504 10.9214 3.49651 7.12891 7.87484 6.38891V3.16683H4.79151V0.0834961H14.0415C15.7836 0.0834961 17.3561 0.684746 18.6511 1.64058L16.4465 3.84516C15.7373 3.42891 14.9203 3.16683 14.0415 3.16683H10.9582V6.38891C15.3365 7.12891 18.6665 10.9214 18.6665 15.5002Z" fill="white"/>
</svg>
