<svg width="40" height="28" viewBox="0 0 40 28" fill="none" xmlns="http://www.w3.org/2000/svg">
<path d="M13.2344 0.148438C12.8672 0.320312 12.6094 0.609375 12.5 1.00781C12.4375 1.20312 12.4219 4.97656 12.4375 12.875L12.4609 24.4531H12.0234C11.6328 24.4531 11.5703 24.4297 11.5156 24.2734C11.4766 24.1797 11.4375 20.0469 11.4297 15.0938L11.4062 6.08594L7.39844 6.10938C3.79688 6.13281 3.375 6.14844 3.15625 6.26562C2.82812 6.44531 2.52344 6.82031 2.42188 7.17188C2.35938 7.375 2.34375 10.0469 2.35938 15.9609L2.38281 24.4531H1.19531H0V25.8984V27.3438H20H40V25.8984V24.4531H38.9062H37.8125V15.8438C37.8125 7.26562 37.8125 7.23438 37.6484 6.89844C37.5312 6.66406 37.375 6.49219 37.125 6.34375L36.7578 6.13281L32.6797 6.10938L28.5938 6.08594L28.5703 15.0938C28.5625 20.0469 28.5234 24.1797 28.4844 24.2812C28.4297 24.4297 28.3672 24.4531 27.9766 24.4531H27.5391L27.5625 12.875C27.5781 4.97656 27.5625 1.20312 27.5 1.00781C27.3906 0.609375 27.1328 0.320312 26.7656 0.148438C26.4609 0.0078125 26.1094 0 20 0C13.8906 0 13.5391 0.0078125 13.2344 0.148438ZM21.5469 0.882812C23.0938 1.42188 24.2109 2.54688 24.7188 4.0625C24.8984 4.60156 24.9375 4.875 24.9453 5.50781C24.9531 6.45312 24.8438 6.94531 24.4375 7.80469C24.1797 8.33594 24 8.59375 23.4844 9.10156C22.4844 10.0938 21.3984 10.5469 20 10.5469C18.6016 10.5469 17.5078 10.0938 16.5234 9.10156C15.375 7.95312 14.875 6.55469 15.0703 5.00781C15.3359 2.9375 16.8984 1.20312 18.9219 0.742188C19.6641 0.570312 20.8359 0.632812 21.5469 0.882812ZM6.5625 10.7031V11.7266L5.57031 11.7031L4.57031 11.6797L4.54688 10.6797L4.52344 9.6875H5.54688H6.5625V10.7031ZM9.75 10.6797L9.72656 11.6797L8.73438 11.7031L7.73438 11.7266V10.7031V9.6875H8.75H9.77344L9.75 10.6797ZM32.8125 10.7031V11.7188H31.8359H30.8594V10.7031V9.6875H31.8359H32.8125V10.7031ZM36 10.6797L35.9766 11.6797L34.9844 11.7031L33.9844 11.7266V10.7031V9.6875H35H36.0234L36 10.6797ZM6.5625 14.1406V15.1641L5.57031 15.1406L4.57031 15.1172L4.54688 14.1172L4.52344 13.125H5.54688H6.5625V14.1406ZM9.75 14.1172L9.72656 15.1172L8.73438 15.1406L7.73438 15.1641V14.1406V13.125H8.75H9.77344L9.75 14.1172ZM32.8125 14.1406V15.1562H31.8359H30.8594V14.1406V13.125H31.8359H32.8125V14.1406ZM36 14.1172L35.9766 15.1172L34.9844 15.1406L33.9844 15.1641V14.1406V13.125H35H36.0234L36 14.1172ZM6.5625 17.6562V18.6719H5.54688H4.53125V17.6562V16.6406H5.54688H6.5625V17.6562ZM9.76562 17.6562V18.6719H8.75H7.73438V17.6562V16.6406H8.75H9.76562V17.6562ZM32.8125 17.6562V18.6719H31.8359H30.8594V17.6562V16.6406H31.8359H32.8125V17.6562ZM36.0156 17.6562V18.6719H35H33.9844V17.6562V16.6406H35H36.0156V17.6562ZM23.125 20.6641V24.375H20.1562H17.1875V20.6641V16.9531H20.1562H23.125V20.6641Z" fill="white"/>
<path d="M18.8047 2.46875C18.7734 2.5 18.75 2.94531 18.75 3.45312V4.375H17.8125H16.875V5.625V6.875H17.8125H18.75V7.8125V8.75H20H21.25V7.8125V6.875H22.1875H23.125V5.625V4.375H22.1875H21.2578L21.2344 3.41406L21.2109 2.46094L20.0312 2.4375C19.3906 2.42969 18.8359 2.44531 18.8047 2.46875Z" fill="white"/>
</svg>
