<svg width="34" height="30" viewBox="0 0 34 30" fill="none" xmlns="http://www.w3.org/2000/svg">
<path d="M16.4078 0.507433C14.2152 2.42595 5.47812 9.88891 1.75589 13.026C1.24478 13.4556 0.77441 13.8778 0.707743 13.9556C0.54478 14.163 0.407742 14.4815 0.359594 14.763C0.21515 15.5926 0.807743 16.4445 1.6596 16.626C1.78923 16.6519 2.43737 16.6667 3.59293 16.6667H5.33367V22.5741C5.33367 26.8334 5.34479 28.5334 5.37442 28.6741C5.50775 29.2963 6.00405 29.8111 6.58553 29.9371C6.79664 29.9815 8.32257 29.9889 17.0929 29.9815C28.4263 29.9741 27.493 29.9926 27.8893 29.7408C28.2559 29.5037 28.5337 29.1037 28.6263 28.6741C28.6559 28.5334 28.667 26.8334 28.667 22.5741V16.6667H30.4078C31.5411 16.6667 32.2115 16.6519 32.3411 16.626C32.6633 16.5593 32.9263 16.4111 33.167 16.1704C33.7708 15.563 33.8263 14.6297 33.293 13.9889C33.23 13.9111 32.2485 13.0593 31.1152 12.1C28.1967 9.62225 18.8226 1.58891 17.4004 0.344469C17.1855 0.15558 17.0004 2.51629e-05 16.9929 0.00372887C16.9892 0.00372887 16.7226 0.229655 16.4078 0.507433ZM18.2226 17.0741V21.8519V17.6306C18.2226 15.5306 18.1307 16.5673 18.5 14.5L14.3448 14.9889C14.3448 14.9889 16.8773 14.6909 18.5 14.5C18.3917 14.4054 18.2226 14.2578 18.2226 14.2578V13.8029V12.2963C18.1374 12.2963 19.3004 11.8926 18.2226 12.2963V17.0741Z" fill="white"/>
</svg>
