<svg width="25" height="25" viewBox="0 0 25 25" fill="none" xmlns="http://www.w3.org/2000/svg">
<path d="M11.4585 5.72933H8.3335V4.16683H8.85433C9.42725 4.16683 9.896 3.69808 9.896 3.12516C9.896 2.55225 9.42725 2.0835 8.85433 2.0835H5.72933C5.15641 2.0835 4.68766 2.55225 4.68766 3.12516C4.68766 3.69808 5.15641 4.16683 5.72933 4.16683H6.25016V5.72933H3.12516C2.55225 5.72933 2.0835 6.19808 2.0835 6.771C2.0835 7.34391 2.55225 7.81266 3.12516 7.81266V15.6252C3.12516 16.771 4.06266 17.7085 5.2085 17.7085H6.25016V21.8752L8.3335 23.4377V17.7085H9.37516C10.521 17.7085 11.4585 16.771 11.4585 15.6252V7.81266C12.0314 7.81266 12.5002 7.34391 12.5002 6.771C12.5002 6.19808 12.0314 5.72933 11.4585 5.72933ZM9.37516 9.37516H7.55225C7.12516 9.37516 6.771 9.72933 6.771 10.1564C6.771 10.5835 7.12516 10.9377 7.55225 10.9377H9.37516V12.5002H7.55225C7.12516 12.5002 6.771 12.8543 6.771 13.2814C6.771 13.7085 7.12516 14.0627 7.55225 14.0627H9.37516V15.6252H5.2085V7.81266H9.37516V9.37516ZM20.3127 10.9377V10.4168C20.8856 10.4168 21.3543 9.94808 21.3543 9.37516C21.3543 8.80225 20.8856 8.3335 20.3127 8.3335H15.1043C14.5314 8.3335 14.0627 8.80225 14.0627 9.37516C14.0627 9.94808 14.5314 10.4168 15.1043 10.4168V10.9377C15.1043 11.4585 13.5418 12.146 13.5418 14.0627V20.8335C13.5418 21.9793 14.4793 22.9168 15.6252 22.9168H19.7918C20.9377 22.9168 21.8752 21.9793 21.8752 20.8335V14.0627C21.8752 12.146 20.3127 11.4585 20.3127 10.9377ZM17.1877 10.9377V10.4168H18.2293V10.9377C18.2293 12.6043 19.7918 13.021 19.7918 14.0627V14.5835H15.6252C15.6252 14.3647 15.6252 14.1772 15.6252 14.0627C15.6252 13.021 17.1877 12.6043 17.1877 10.9377ZM15.6252 20.8335C15.6252 20.8335 15.6252 20.1772 15.6252 19.271H19.7918V20.8335H15.6252Z" />
</svg>
