<svg width="77" height="84" viewBox="0 0 77 84" fill="none" xmlns="http://www.w3.org/2000/svg">
  <rect x="41.1162" width="28" height="28" rx="14" fill="#FA5252"/>
  <rect x="6.12012" y="16.625" width="50" height="18" rx="2" transform="rotate(19.8773 6.12012 16.625)" fill="#3BEB38"/>
  <rect x="11.2393" y="73.6812" width="25" height="25" rx="2" transform="rotate(-70.4483 11.2393 73.6812)" fill="#6361E1"/>
  <rect x="44.1162" y="75.5586" width="25" height="25" rx="2" transform="rotate(-70.4483 44.1162 75.5586)" fill="#6361E1"/>
  <rect x="6.12012" y="16.625" width="50" height="18" rx="2" transform="rotate(19.8773 6.12012 16.625)" fill="#3BEB38"/>
  <rect x="11.2393" y="73.6812" width="25" height="25" rx="2" transform="rotate(-70.4483 11.2393 73.6812)" fill="#6361E1"/>
  <rect x="44.1162" y="75.5586" width="25" height="25" rx="2" transform="rotate(-70.4483 44.1162 75.5586)" fill="#6361E1"/>
  <rect x="6.12012" y="16.625" width="50" height="18" rx="2" transform="rotate(19.8773 6.12012 16.625)" fill="#3BEB38"/>
  <rect x="11.2393" y="73.6812" width="25" height="25" rx="2" transform="rotate(-70.4483 11.2393 73.6812)" fill="#6361E1"/>
  <rect x="6.12012" y="16.625" width="50" height="18" rx="2" transform="rotate(19.8773 6.12012 16.625)" fill="#3BEB38"/>
</svg>
