<svg width="26" height="26" viewBox="0 0 26 26" fill="none" xmlns="http://www.w3.org/2000/svg">
<path d="M14.2744 22.9125V25.4375C16.7869 25.1875 19.0744 24.1875 20.9244 22.675L19.1494 20.8875C17.7619 21.9625 16.0994 22.6875 14.2744 22.9125Z" fill="white"/>
<path d="M3.03711 13C3.03711 7.9375 6.82461 3.7375 11.7246 3.0875V0.5625C5.43711 1.225 0.537109 6.55 0.537109 13C0.537109 19.45 5.43711 24.775 11.7246 25.4375V22.9125C6.82461 22.2625 3.03711 18.0625 3.03711 13Z" fill="white"/>
<path d="M22.9371 11.75H25.4621C25.2121 9.23748 24.2121 6.94998 22.6996 5.09998L20.9121 6.88748C21.9871 8.26248 22.7121 9.92498 22.9371 11.75Z" fill="white"/>
<path d="M20.9244 3.325C19.0744 1.8125 16.7744 0.8125 14.2744 0.5625V3.0875C16.0994 3.3125 17.7619 4.0375 19.1494 5.1125L20.9244 3.325Z" fill="white"/>
<path d="M20.9121 19.125L22.6996 20.9C24.2121 19.05 25.2121 16.7625 25.4621 14.25H22.9371C22.7121 16.075 21.9871 17.7375 20.9121 19.125Z" fill="white"/>
<path d="M18 11.875C18 8.7625 15.625 6.75 13 6.75C10.375 6.75 8 8.7625 8 11.875C8 13.95 9.6625 16.4125 13 19.25C16.3375 16.4125 18 13.95 18 11.875ZM13 13C12.2625 13 11.6625 12.4 11.6625 11.6625C11.6625 10.925 12.2625 10.325 13 10.325C13.7375 10.325 14.3375 10.925 14.3375 11.6625C14.3375 12.4 13.7375 13 13 13Z" fill="white"/>
</svg>
