<svg width="28" height="28" viewBox="0 0 28 28" fill="none" xmlns="http://www.w3.org/2000/svg">
<path d="M9.83317 12.3332C13.0498 12.3332 15.6665 14.9498 15.6665 18.1665C15.6665 21.3832 13.0498 23.9998 9.83317 23.9998C6.6165 23.9998 3.99984 21.3832 3.99984 18.1665C3.99984 14.9498 6.6165 12.3332 9.83317 12.3332ZM9.83317 8.99984C4.7665 8.99984 0.666504 13.0998 0.666504 18.1665C0.666504 23.2332 4.7665 27.3332 9.83317 27.3332C14.8998 27.3332 18.9998 23.2332 18.9998 18.1665C18.9998 16.2332 18.3998 14.4498 17.3832 12.9665L23.9998 6.3665V10.6665H27.3332V0.666504H17.3332V3.99984H21.6332L15.0165 10.6165C13.5498 9.59984 11.7665 8.99984 9.83317 8.99984Z" fill="#43FFFF"/>
</svg>
