<svg width="50" height="50" viewBox="0 0 50 50" fill="none" xmlns="http://www.w3.org/2000/svg">
<path d="M17.6643 0.19183C16.1729 0.676205 14.6488 1.46527 13.5282 2.33245C13.1696 2.60589 12.1183 3.56683 12.0612 3.6723C12.0368 3.71136 12.106 3.91449 12.2609 4.27777L12.4932 4.82074L12.0123 5.08636L11.5315 5.35199L11.2258 5.26995C11.0588 5.22699 10.9039 5.19964 10.8835 5.21136C10.8428 5.2387 10.4638 5.87542 10.2682 6.24652C10.1949 6.38714 10.0278 6.62542 9.89332 6.77386C9.13537 7.63324 8.51598 8.87933 8.27555 10.02C8.01475 11.27 8.08403 12.3989 8.50375 13.7543C8.52413 13.8207 8.57303 13.7973 2.82323 16.6996L0.211172 18.02L0.117448 18.3168C-0.00480149 18.7035 -0.0170264 19.2934 0.092998 19.5981C0.198947 19.8832 0.471971 20.227 0.736844 20.3989C1.01394 20.5825 1.44589 20.7387 1.74336 20.766L1.97564 20.7856L5.45974 18.6762C8.29593 16.9575 8.94792 16.5785 8.9683 16.6332C8.98052 16.6684 9.00497 16.891 9.02127 17.1293C9.11092 18.52 9.34727 20.4965 9.93814 24.8832C10.1337 26.3403 10.256 27.4457 10.2764 27.9692L10.2886 28.2231L11.0751 28.6762C11.507 28.9301 11.8493 29.141 11.8289 29.1528C11.8126 29.1606 11.4622 29.3051 11.0547 29.4731L10.309 29.7739V30.7153C10.309 32.4496 10.1297 34.0434 9.77922 35.4575C9.66105 35.9223 9.32282 36.9614 9.25355 37.0629C9.2291 37.1059 9.13945 37.0785 8.8379 36.9379C8.27963 36.6801 7.84768 36.5864 7.19161 36.5903C6.75966 36.5942 6.58851 36.6137 6.25436 36.6957C5.52494 36.8793 4.89332 37.2231 4.42877 37.6918C4.25763 37.8598 4.20058 37.9457 4.2291 37.9809C4.95445 38.8715 5.54532 39.6176 5.53309 39.6293C5.52902 39.6332 5.21932 39.6684 4.8485 39.7035C4.47767 39.7387 4.10685 39.7778 4.02535 39.7895L3.8705 39.8129L4.29838 40.1684C4.53472 40.3637 4.72625 40.5356 4.72625 40.5473C4.72625 40.5629 4.44507 40.5942 4.10685 40.6215C3.76455 40.6489 3.45078 40.6801 3.40595 40.6918C3.33668 40.7114 3.33261 40.7465 3.35298 41.2856C3.38151 42.0434 3.4956 42.5239 3.76863 43.0473C3.92348 43.3442 4.24133 43.7465 4.33912 43.77C4.38395 43.7817 4.61215 43.8325 4.8485 43.8832C5.08485 43.9379 5.98134 44.1371 6.84524 44.3325C7.70913 44.5239 9.441 44.9145 10.6961 45.1957C14.8159 46.1215 16.8045 46.5668 17.1346 46.641C17.432 46.7075 19.2984 47.1254 23.5934 48.0903C25.4231 48.5004 25.6676 48.5551 26.2421 48.6879C26.4785 48.7387 27.5869 48.9887 28.7075 49.2387C29.8281 49.4926 30.965 49.7504 31.234 49.8129C32.1631 50.0278 32.5665 50.0395 33.1696 49.8793C34.3269 49.5746 35.5453 48.4926 36.6252 46.8168C37.5217 45.4223 38.1125 44.2387 38.6341 42.7778C39.7792 39.5707 40.1582 35.8832 39.8118 31.3676C39.7018 29.9731 39.1924 25.7153 39.1272 25.6645C39.1109 25.6489 38.5934 25.5434 37.9781 25.4301C37.3627 25.3168 36.8452 25.2114 36.8248 25.1996C36.8085 25.184 37.216 24.8754 37.7336 24.5121C38.247 24.1489 38.6667 23.8481 38.6586 23.8442C38.6545 23.8364 38.1288 23.727 37.4891 23.5942C36.8534 23.4653 36.3277 23.3559 36.3236 23.3481C36.3195 23.3442 36.833 23.0043 37.4687 22.5981C38.7808 21.7582 38.6667 21.8832 38.5893 21.3207C38.5363 20.9496 38.4019 19.5082 38.3367 18.6137C38.2715 17.684 38.2715 15.0707 38.3367 14.3364C38.4589 13.02 38.6912 11.7504 38.9764 10.7817C39.0579 10.516 39.1272 10.2934 39.1313 10.2895C39.1598 10.2582 39.8852 10.1918 40.5209 10.1567C41.6741 10.0942 42.4972 10.145 45.2723 10.4535C46.7474 10.6176 47.432 10.641 47.8395 10.5356C48.5893 10.3442 49.2006 9.87542 49.5999 9.18792C49.7344 8.96136 49.9748 8.3637 49.9463 8.33636C49.9422 8.33245 49.5632 8.10589 49.1028 7.83245C48.6423 7.55902 48.2511 7.32464 48.2348 7.30511C48.2144 7.28949 48.5893 7.0512 49.0702 6.77777C49.5469 6.50433 49.9544 6.26605 49.9748 6.25042C50.0278 6.20355 49.8077 5.52777 49.6121 5.13324C49.0539 4.01605 47.9903 3.19964 46.4133 2.6762C44.3595 1.99652 42.2935 1.66449 38.6708 1.44183C38.3 1.41839 37.0164 1.39105 35.8102 1.37933C33.4874 1.35589 32.1508 1.39105 30.0115 1.52777C28.4671 1.62933 25.6716 1.66839 24.5918 1.60589C21.943 1.45355 20.0563 1.01214 18.6545 0.22308C18.4385 0.101986 18.2552 0.000423431 18.247 0.00432968C18.2389 0.00432968 17.9781 0.0902672 17.6643 0.19183Z" fill="#00FF66" fill-opacity="0.8"/>
</svg>
