<svg width="28" height="23" viewBox="0 0 28 23" fill="none" xmlns="http://www.w3.org/2000/svg">
<path d="M23.5074 0.265531C21.9734 0.702249 21.473 2.70947 22.6297 3.81807C23.0808 4.26318 23.409 4.38916 24.0488 4.38916C24.9019 4.38916 25.5172 4.01123 25.9191 3.22178C26.1652 2.75147 26.1652 1.84444 25.9191 1.37412C25.4433 0.467093 24.4426 0.00517893 23.5074 0.265531Z" fill="white"/>
<path d="M19.9965 1.88633C19.8324 2.10469 19.8242 2.21387 19.8242 4.36387V6.61465L20.0211 6.8498L20.218 7.08496H22.9414H25.6648L25.8617 6.8498C26.1078 6.54746 26.1078 6.27871 25.8617 5.97637L25.6648 5.74121L23.4664 5.71602C21.8668 5.69922 21.2516 5.66563 21.2023 5.59004C21.1695 5.53125 21.1367 4.7082 21.1367 3.75918C21.1367 2.0627 21.1367 2.0291 20.948 1.85273C20.6691 1.58398 20.218 1.60078 19.9965 1.88633Z" fill="white"/>
<path d="M3.10622 2.83535C2.532 3.03691 2.11364 3.39805 1.85935 3.90195C1.67888 4.26309 1.65427 4.43105 1.62966 5.41367C1.59685 6.44668 1.60505 6.53066 1.76911 6.69863L1.94138 6.875H10.4316C18.8152 6.875 18.9218 6.875 19.0859 6.70703C19.2418 6.54746 19.25 6.42988 19.25 4.77539C19.25 3.1209 19.2418 3.00332 19.0859 2.84375C18.9218 2.67578 18.8152 2.67578 11.2355 2.67578C4.00036 2.68418 3.51638 2.69258 3.10622 2.83535Z" fill="white"/>
<path d="M0.883203 7.89121C0.546875 8.02558 0.473047 8.21875 0.464844 8.90742C0.464844 9.51211 0.48125 9.5625 0.719141 9.81445C1.05547 10.1504 1.32617 10.2932 2.08906 10.5031C2.67969 10.6711 2.9832 10.6879 7.08477 10.7299C11.1289 10.7803 11.4652 10.7887 11.5965 10.9314C11.7277 11.0658 11.7441 11.301 11.7687 13.241L11.7934 15.3994L11.5473 15.5422C11.2109 15.7353 11.1289 16.1049 11.1289 17.499C11.1289 18.8848 11.2109 19.2627 11.5473 19.4559L11.7852 19.5986V21.0768V22.5549L11.9984 22.7816L12.2199 23H13.598C15.0664 23 15.3125 22.9496 15.4684 22.6053C15.534 22.4625 15.5586 20.724 15.5586 16.7936C15.5586 11.3934 15.5668 11.1666 15.7145 10.9818L15.8703 10.7803L20.5789 10.7299C25.0332 10.6879 25.3121 10.6711 25.9109 10.5031C26.6738 10.2932 26.9445 10.1504 27.2809 9.81445C27.5187 9.5625 27.5352 9.51211 27.5352 8.90742C27.527 8.20195 27.4531 8.02558 27.0922 7.88281C26.7969 7.77363 1.16211 7.77363 0.883203 7.89121Z" fill="white"/>
</svg>
