<svg width="24" height="24" viewBox="0 0 24 24" fill="none" xmlns="http://www.w3.org/2000/svg">
<g clip-path="url(#clip0_3786_1825)">
<path d="M8 14H14V15.5H8V14Z" fill="white"/>
<path d="M14.5 11C15.3284 11 16 10.3284 16 9.5C16 8.67157 15.3284 8 14.5 8C13.6716 8 13 8.67157 13 9.5C13 10.3284 13.6716 11 14.5 11Z" fill="white"/>
<path d="M7.5 11C8.32843 11 9 10.3284 9 9.5C9 8.67157 8.32843 8 7.5 8C6.67157 8 6 8.67157 6 9.5C6 10.3284 6.67157 11 7.5 11Z" fill="white"/>
<path d="M10.99 2C5.47 2 1 6.48 1 12C1 17.52 5.47 22 10.99 22C16.52 22 21 17.52 21 12C21 6.48 16.52 2 10.99 2ZM11 20C6.58 20 3 16.42 3 12C3 7.58 6.58 4 11 4C15.42 4 19 7.58 19 12C19 16.42 15.42 20 11 20Z" fill="white"/>
</g>
<defs>
<clipPath id="clip0_3786_1825">
<rect width="24" height="24" fill="white"/>
</clipPath>
</defs>
</svg>
