<svg width="22" height="22" viewBox="0 0 22 22" fill="none" xmlns="http://www.w3.org/2000/svg">
<path d="M8.00977 4.06217C8.74935 2.91634 10.041 2.16634 11.4993 2.16634C13.8014 2.16634 15.666 4.03092 15.666 6.33301C15.666 7.79134 14.916 9.08301 13.7702 9.82259L8.00977 4.06217ZM19.8327 15.8851C19.8119 14.7393 19.1764 13.6872 18.1556 13.1559C17.5931 12.8643 16.9785 12.5934 16.3119 12.3643L19.8327 15.8851ZM21.0723 20.0726L1.92643 0.926758L0.447266 2.39551L9.70768 11.6559C7.82227 11.8955 6.17643 12.4788 4.8431 13.1663C3.80143 13.6976 3.16602 14.7705 3.16602 15.9372V18.833H16.8848L19.6035 21.5518L21.0723 20.0726Z" fill="white"/>
</svg>
