<svg width="28" height="43" viewBox="0 0 28 43" fill="none" xmlns="http://www.w3.org/2000/svg">
<path d="M4.77293 0.616711C3.53074 1.43702 2.92137 2.89015 2.92137 4.99952C2.92137 7.1089 3.53074 8.58546 4.72606 9.33546C5.21824 9.64015 5.47606 9.99171 5.49949 10.3433C5.49949 10.6245 4.63231 12.1714 3.57762 13.7417C0.413558 18.4527 0.57762 17.5855 0.57762 28.437C0.57762 37.648 0.57762 37.6948 1.14012 38.8667C1.70262 40.0855 2.82762 41.2339 4.16356 41.9605C4.84324 42.3355 5.82762 42.3823 13.6557 42.4527C23.9682 42.523 24.2964 42.4761 26.1245 40.6245C27.9995 38.773 28.0229 38.4917 27.9526 27.9214C27.8823 17.4917 28.0932 18.5464 24.9526 13.7886C23.8745 12.148 23.0776 10.7183 23.0776 10.3902C23.0776 9.99171 23.3354 9.64015 23.8745 9.28859C25.1401 8.46828 25.4682 7.46046 25.3745 4.69484C25.3276 2.67921 25.2339 2.18702 24.7886 1.57765C23.7339 0.101086 23.5464 0.0776482 14.1011 0.0776482C5.64012 0.0776482 5.56981 0.0776482 4.77293 0.616711ZM7.96043 4.99952V7.46046L7.30418 7.53078C6.92918 7.57765 6.39012 7.43703 6.06199 7.22609C5.54637 6.89796 5.49949 6.71046 5.49949 4.99952C5.49949 3.3589 5.54637 3.10109 6.03856 2.77296C6.31981 2.56202 6.88231 2.44484 7.25731 2.46827L7.96043 2.53859V4.99952ZM12.9995 5.02296V7.60109L11.7807 7.53078L10.5386 7.46046L10.4682 5.25734C10.4448 4.03859 10.4448 2.91359 10.5151 2.72609C10.6089 2.53859 11.0542 2.4214 11.8276 2.4214H12.9995V5.02296ZM17.9214 4.99952V7.57765H16.7495H15.5776V4.99952V2.4214H16.7495H17.9214V4.99952ZM22.6089 2.89015C22.9839 3.26515 23.0776 3.66359 23.0776 4.99952C23.0776 6.94484 22.6557 7.57765 21.3198 7.57765H20.4995V4.99952V2.4214H21.3198C21.8354 2.4214 22.3276 2.6089 22.6089 2.89015ZM25.4214 28.7886V34.9995H14.1714H2.92137V28.7886V22.5777H14.1714H25.4214V28.7886Z" fill="#00FF66" fill-opacity="0.8"/>
<path d="M13.5156 25.2965C13.1406 25.5543 13 25.8824 13 26.5856C13 27.4996 13 27.4996 12.0859 27.4996C11.1484 27.4996 10.4219 28.0856 10.4219 28.8356C10.4219 29.4215 11.3359 30.0777 12.1797 30.0777C12.9531 30.0777 13 30.1246 13 30.8746C13 31.3199 13.1641 31.859 13.375 32.0465C14.2422 32.9371 15.5781 32.1402 15.5781 30.734C15.5781 30.1715 15.6719 30.0777 16.2344 30.0777C17.6406 30.0777 18.4375 28.7418 17.5469 27.8746C17.3594 27.6637 16.8203 27.4996 16.375 27.4996C15.625 27.4996 15.5781 27.4527 15.5781 26.6793C15.5781 25.8356 14.9219 24.9215 14.3359 24.9215C14.1719 24.9215 13.7969 25.0856 13.5156 25.2965Z" fill="#00FF66" fill-opacity="0.8"/>
</svg>
