<svg width="41" height="51" viewBox="0 0 41 51" fill="none" xmlns="http://www.w3.org/2000/svg">
<path d="M13.6428 0.0882568C11.2541 0.535808 9.48935 2.74234 8.67529 6.29673C8.46138 7.22826 8.32471 8.3003 8.30095 9.15897L8.28906 9.80948L20.488 9.82509C31.7185 9.8355 32.687 9.8303 32.7227 9.75224C32.7821 9.60652 32.6276 7.86836 32.4731 7.01489C31.8492 3.52815 30.2389 1.0406 28.1176 0.286012C27.3036 -0.00541687 27.4046 -0.000212669 20.4583 0.00499153C15.0214 0.0101957 13.9875 0.0206032 13.6428 0.0882568Z" fill="#00FF66" fill-opacity="0.8"/>
<path d="M7.69456 11.2772C7.55789 13.3276 8.00355 15.2375 9.03746 17.0225C10.3388 19.2603 12.3947 21.0245 14.9735 22.1121C15.3479 22.2682 15.7935 22.4712 15.9599 22.5649C16.3996 22.8095 16.9582 23.002 17.5286 23.1061L18.0337 23.1946L15.9837 23.2258C13.8148 23.2518 13.3335 23.2934 12.0144 23.5536C7.83717 24.3707 4.22442 26.7125 2.02587 30.0275C1.1108 31.4118 0.50471 32.9418 0.136305 34.8153C0.0531164 35.2524 0.0352903 36.0591 0.0174642 41.539C-0.0063039 47.4872 -0.000361874 47.7682 0.100653 47.8151C0.284855 47.8983 2.94688 48.5853 4.36703 48.9131C9.0434 49.9956 13.1612 50.5941 18.0931 50.9063C19.4598 50.9896 24.0946 50.9896 25.4612 50.9063C31.3973 50.5316 36.757 49.4492 40.2747 47.914L41.0056 47.5965L40.9818 41.4765C40.964 34.8153 40.9758 35.1379 40.6134 33.7224C39.3656 28.8462 34.9922 24.9015 29.4364 23.6525C28.0163 23.3299 27.2438 23.257 25.0156 23.2258C23.1082 23.1946 23.0428 23.1894 23.435 23.1217C23.9876 23.0228 24.5461 22.8303 25.0393 22.5753C25.2651 22.4556 25.788 22.2162 26.198 22.0393C28.6877 20.9568 30.6902 19.2186 31.9618 17.0225C32.9957 15.2375 33.4414 13.3276 33.3047 11.2772L33.2631 10.6163H20.4996H7.73616L7.69456 11.2772ZM31.6766 12.4898C31.6647 12.7344 31.6409 12.9737 31.6172 13.0258C31.5934 13.0882 30.7734 13.4421 29.2641 14.051L26.9467 14.9773L26.6793 14.7587C26.5248 14.6339 26.2456 14.4777 26.0495 14.4101L25.6989 14.2852L20.4164 14.2696C15.7341 14.2592 15.0983 14.2644 14.8072 14.3372C14.3853 14.4465 14.0525 14.6339 13.8921 14.8576C13.8148 14.9565 13.7376 15.0346 13.7138 15.0242C13.696 15.019 12.7275 14.6859 11.5688 14.2852L9.45934 13.5566L9.41775 13.3224C9.35833 12.979 9.28702 12.1047 9.31079 12.0578C9.32268 12.037 14.3675 12.0266 20.5175 12.0318L31.7003 12.0474L31.6766 12.4898ZM31.3973 14.2696C31.0348 15.6226 30.1435 17.1474 29.0324 18.3079C28.5986 18.7607 27.529 19.6506 27.4756 19.609C27.4637 19.5985 27.4815 19.3123 27.5172 18.9793C27.5885 18.2611 27.4993 16.372 27.3745 15.9141L27.2914 15.6174L27.6241 15.4873C27.8083 15.4145 28.7472 15.0398 29.7098 14.6495C30.6724 14.2644 31.4686 13.9469 31.4745 13.9469C31.4805 13.9469 31.4448 14.0926 31.3973 14.2696ZM11.6698 15.0866L13.4524 15.7007L13.4405 16.9184C13.4346 17.5898 13.4524 18.4641 13.4821 18.8648C13.5118 19.2655 13.5296 19.5985 13.5177 19.609C13.4762 19.6506 12.5373 18.8804 12.1095 18.4536C11.1766 17.5221 10.3328 16.2367 9.89311 15.0866C9.78021 14.7796 9.68514 14.5037 9.68514 14.4725C9.68514 14.3893 9.57224 14.358 11.6698 15.0866ZM32.859 36.949V39.1347H35.4438H38.0286V40.4617V41.7887H35.4438H32.859V44.0005V46.2122H31.3438H29.8286V44.0005V41.7887H27.3924H24.9561V40.4617V39.1347H27.3924H29.8286V36.949V34.7632H31.3438H32.859V36.949Z" fill="#00FF66" fill-opacity="0.8"/>
</svg>
