<svg width="48" height="18" viewBox="0 0 48 18" fill="none" xmlns="http://www.w3.org/2000/svg">
<path d="M22.0668 0.451672C21.8579 0.545374 21.649 0.732782 21.5512 0.91593C21.4668 1.07778 21.4624 1.2013 21.4357 7.275L21.409 13.468L21.1957 13.6C20.2357 14.1963 19.9024 15.4315 20.4312 16.4494C20.5824 16.7391 21.0535 17.1991 21.3557 17.3567C21.6312 17.4972 22.2001 17.6463 22.4535 17.6463C22.7157 17.6463 23.2135 17.5143 23.5335 17.3652C23.8357 17.2246 24.2401 16.8626 24.4135 16.5772C24.8312 15.8957 24.8535 15.0737 24.4757 14.3922C24.3157 14.1026 23.8846 13.6639 23.6312 13.5361L23.4668 13.4509V12.5693V11.6833H34.0224H44.5779V12.5735V13.4637L44.4357 13.5191C44.2268 13.6 43.6712 14.1452 43.5424 14.3965C43.1024 15.2228 43.2446 16.245 43.8846 16.918C44.2579 17.3098 45.0179 17.6463 45.5157 17.6463C46.1112 17.642 46.689 17.4163 47.1201 17.0202C47.6624 16.5176 47.8224 16.1513 47.8224 15.4059C47.8224 14.8607 47.7468 14.5967 47.4801 14.2091C47.3157 13.9706 46.9512 13.6341 46.7468 13.5319L46.6224 13.468V12.6928C46.6224 12.2669 46.609 10.5546 46.5957 8.89352C46.5646 5.52871 46.5779 5.70334 46.2579 5.44352C46.0268 5.25612 45.8357 5.19649 45.529 5.21778C45.0446 5.2476 44.7068 5.55426 44.6224 6.04408C44.5957 6.18038 44.5779 6.91297 44.5779 7.66686V9.0426H34.0268H23.4801L23.4579 5.06019L23.4357 1.07778L23.3068 0.877596C23.1068 0.566671 22.8712 0.430374 22.5024 0.409079C22.3068 0.40056 22.1557 0.413338 22.0668 0.451672ZM23.6312 14.9459C23.729 15.1504 23.7424 15.227 23.7246 15.4911C23.6979 15.8446 23.5957 16.0619 23.3468 16.2919C22.7201 16.8754 21.7512 16.7263 21.3379 15.9894C21.2268 15.785 21.1957 15.6743 21.1912 15.4826C21.1868 15.2483 21.2979 14.8182 21.3735 14.7713C21.3912 14.7628 21.4312 14.8565 21.4624 14.9885C21.529 15.2696 21.7335 15.5422 21.9779 15.6615C22.2535 15.7978 22.6712 15.785 22.9468 15.6317C23.1912 15.4954 23.3957 15.1887 23.4446 14.8948C23.4579 14.7926 23.4801 14.7074 23.4935 14.7074C23.5068 14.7074 23.569 14.8139 23.6312 14.9459ZM44.6135 14.9587C44.7157 15.423 45.0446 15.7126 45.5335 15.7594C45.9912 15.8063 46.489 15.4613 46.5557 15.0524C46.5735 14.9672 46.6001 14.8607 46.6224 14.8139C46.6535 14.7372 46.6668 14.75 46.7379 14.8991C46.7824 14.9928 46.8268 15.2057 46.8357 15.3761C46.849 15.6359 46.8357 15.7169 46.7424 15.9128C46.5157 16.3856 46.1112 16.6411 45.5779 16.6411C45.0535 16.6454 44.6357 16.3813 44.409 15.9085C44.3157 15.7083 44.3024 15.6359 44.3201 15.3506C44.3424 15.0609 44.4579 14.7074 44.5335 14.7074C44.5468 14.7074 44.5824 14.8182 44.6135 14.9587Z" fill="white"/>
<path d="M6.93354 2.06166C6.48465 2.17666 6.21354 2.32573 5.88465 2.6324C5.12465 3.34369 4.98687 4.40425 5.51576 5.45203C5.62243 5.65647 5.76909 5.84388 6.02243 6.08666C6.46687 6.51684 6.96909 6.7724 7.4802 6.83203C7.65798 6.84907 10.7735 6.8661 14.4046 6.87036H21.0091L21.0935 6.7724C21.2046 6.64888 21.2891 6.50406 21.2891 6.43166C21.2891 6.40184 21.2313 6.3124 21.1602 6.23147L21.0313 6.0824L14.2846 6.0611C6.92021 6.03555 7.49798 6.05684 7.04465 5.81832C6.64909 5.60962 6.27576 5.16666 6.15132 4.74925C6.04465 4.40851 6.08021 3.84203 6.22243 3.57795C6.45798 3.12647 6.92465 2.85388 7.44465 2.85388C8.07576 2.85388 8.41798 3.13073 8.55132 3.74406C8.64465 4.17425 8.89798 4.3574 9.19131 4.21258C9.63131 3.99536 9.40909 3.05832 8.78687 2.4961C8.47576 2.21925 8.3202 2.13406 7.92909 2.0361C7.59132 1.95092 7.34243 1.95943 6.93354 2.06166Z" fill="white"/>
<path d="M28.5022 2.24482C28.0355 2.38964 27.5111 2.84112 27.2977 3.27982C27.1911 3.50557 27.1777 3.57371 27.1777 4.01668C27.1777 4.48945 27.1822 4.51501 27.3288 4.79612C27.7111 5.5202 28.3644 5.88223 29.2133 5.83538C29.5377 5.81834 29.6533 5.79279 29.9022 5.67353C30.2888 5.49464 30.6088 5.18371 30.8044 4.80464C30.9511 4.51927 30.9555 4.48945 30.9555 4.01668C30.9555 3.55242 30.9466 3.50982 30.8133 3.23723C30.6266 2.85816 30.2755 2.52168 29.88 2.34279C29.6133 2.22353 29.5244 2.20649 29.1333 2.19797C28.8488 2.18945 28.6222 2.20649 28.5022 2.24482Z" fill="white"/>
<path d="M1.39577 3.46296C0.97799 3.54388 0.542434 3.84629 0.2891 4.22963C0.226878 4.32333 0.133544 4.55759 0.0802106 4.74926C-0.0131229 5.09426 -0.0131229 5.10277 0.0624328 5.46055C0.191322 6.04407 0.431322 6.42314 0.862434 6.72981C1.19577 6.96833 1.3291 7.0237 1.70244 7.08333C2.03133 7.13444 4.59577 7.14722 4.73355 7.10037C5.03133 6.99814 5.12022 6.68296 4.91577 6.45722L4.80911 6.33796L3.35577 6.30814C2.55577 6.28685 1.82688 6.25703 1.73355 6.23148C1.38688 6.14203 1.01355 5.75444 0.929101 5.39666C0.786879 4.79611 1.18688 4.27222 1.79132 4.27222C1.9691 4.27222 2.02244 4.29351 2.17355 4.43407C2.27133 4.51926 2.36021 4.65129 2.37799 4.71944C2.43577 4.98351 2.51577 5.14111 2.63133 5.22203C2.73799 5.2987 2.77355 5.30296 2.9291 5.25611C3.16466 5.19222 3.24466 5.07296 3.24466 4.79611C3.24466 4.15296 2.7291 3.59074 2.02688 3.46722C1.7291 3.41611 1.65799 3.41611 1.39577 3.46296Z" fill="white"/>
<path d="M32.734 4.86852C32.3162 4.96649 31.8984 5.28593 31.6984 5.65649C31.6095 5.83112 31.5784 5.96315 31.5518 6.35927C31.5029 7.07482 31.5029 8.05445 31.5562 8.07149C31.5784 8.07575 33.9873 8.07575 36.9073 8.06297C42.045 8.04167 42.2183 8.03741 42.3072 7.96075C42.3739 7.90112 42.4005 7.82871 42.4005 7.70093C42.4005 7.45815 42.2494 7.33038 41.3339 6.80223C39.5517 5.77575 36.9695 5.09852 33.9606 4.87278C33.2895 4.82167 32.9295 4.81741 32.734 4.86852Z" fill="white"/>
<path d="M25.3109 6.06113C25.262 6.07817 25.1643 6.15483 25.0887 6.2315L24.9554 6.36354L24.942 7.19409L24.9287 8.02039H27.4887H30.0532L30.0221 7.73076C29.9643 7.21113 29.7243 6.93428 29.2087 6.7852C28.7865 6.66594 25.6665 6.01854 25.5198 6.0228C25.4532 6.0228 25.3598 6.03983 25.3109 6.06113Z" fill="white"/>
<path d="M8.17811 7.64131C5.41367 7.66687 5.45812 7.66687 4.90256 7.9139C3.4759 8.56131 2.65368 10.0819 2.96035 11.5045C3.07146 12.0326 3.29368 12.4117 3.73368 12.8334C4.17368 13.2593 4.5559 13.4595 5.17812 13.6C5.64923 13.7065 5.80034 13.7065 6.22256 13.6043C7.307 13.3359 8.05811 12.4458 8.05811 11.4278C8.05811 10.6654 7.65811 10.0435 6.947 9.69853C6.61367 9.53668 6.60034 9.53242 6.11589 9.53242C5.57812 9.53242 5.41367 9.57502 5.03145 9.82205C4.52479 10.1458 4.42256 10.6526 4.82256 10.8145C5.04923 10.9039 5.08479 10.8954 5.38256 10.6398C5.7959 10.2863 6.10256 10.2437 6.61367 10.4737C7.29367 10.7889 7.387 11.7259 6.80034 12.3393C6.55145 12.5948 6.30256 12.7311 5.96034 12.7908C5.14701 12.9313 4.27145 12.4458 3.90257 11.6408C3.78701 11.4022 3.74701 10.7335 3.81812 10.4013C3.89812 10.0435 4.19145 9.51965 4.46701 9.24279C4.76034 8.9489 5.17812 8.68057 5.48478 8.59113C5.87145 8.48039 7.27589 8.45057 13.6625 8.42076L19.787 8.39094L19.8936 8.2802C20.0359 8.13965 20.067 8.00761 20.0048 7.85853C19.8936 7.60298 20.1692 7.61576 15.2448 7.61576C12.7648 7.61576 9.58255 7.62427 8.17811 7.64131Z" fill="white"/>
<path d="M10.4672 9.20871C9.50278 9.23427 9.485 9.23427 9.28056 9.34927C8.4939 9.79649 8.34724 10.7335 8.96057 11.3852C9.14279 11.5811 9.40056 11.7089 9.725 11.7685C10.085 11.8324 10.2717 11.7217 10.3383 11.4022C10.3783 11.2148 10.1961 11.0274 9.91167 10.955C9.44945 10.84 9.30278 10.4695 9.60056 10.1713L9.75167 10.0222L13.6405 10.018C15.7827 10.018 17.7694 10.0009 18.0582 9.9839C18.6538 9.94983 18.7071 9.92001 18.7427 9.63038C18.7605 9.47279 18.7471 9.42168 18.6627 9.32797L18.556 9.21297L15.0005 9.19594C13.045 9.18742 11.005 9.19168 10.4672 9.20871Z" fill="white"/>
</svg>
