<svg width="45" height="45" viewBox="0 0 45 45" fill="none" xmlns="http://www.w3.org/2000/svg">
<path d="M28.75 0.999728C28.5173 1.03323 28.3039 1.14764 28.1471 1.32286C27.9904 1.49808 27.9004 1.72291 27.8929 1.95789C27.8855 2.19286 27.961 2.42295 28.1063 2.60776C28.2516 2.79257 28.4574 2.92028 28.6875 2.96848C31.2886 3.44539 34.4464 5.38258 37 7.90598C39.5536 10.4294 41.524 13.5476 42.0312 16.1872C42.0352 16.3323 42.0707 16.4748 42.1353 16.6047C42.1999 16.7347 42.292 16.8491 42.4052 16.9399C42.5184 17.0307 42.65 17.0958 42.7909 17.1306C42.9318 17.1654 43.0785 17.1692 43.221 17.1416C43.3635 17.1141 43.4983 17.0558 43.616 16.9709C43.7337 16.886 43.8315 16.7765 43.9026 16.65C43.9738 16.5235 44.0166 16.3831 44.028 16.2384C44.0394 16.0937 44.0192 15.9483 43.9687 15.8122C43.342 12.5509 41.1734 9.20283 38.4062 6.46848C35.6391 3.73413 32.2864 1.62207 29.0625 1.03098C28.9606 1.00417 28.8552 0.993622 28.75 0.999728ZM27.75 5.99973C27.525 6.02516 27.3152 6.12621 27.1551 6.28636C26.9949 6.44651 26.8939 6.65626 26.8685 6.8813C26.8431 7.10635 26.8948 7.33335 27.0152 7.52517C27.1356 7.71699 27.3175 7.86227 27.5312 7.93723C31.6584 9.53596 35.5542 13.3222 36.9375 17.3122C36.9615 17.4545 37.0161 17.59 37.0975 17.7092C37.1788 17.8284 37.285 17.9286 37.4087 18.003C37.5325 18.0773 37.6708 18.1239 37.8143 18.1397C37.9578 18.1555 38.1029 18.14 38.2399 18.0944C38.3768 18.0487 38.5022 17.974 38.6075 17.8753C38.7129 17.7766 38.7955 17.6562 38.8499 17.5225C38.9044 17.3889 38.9292 17.245 38.9227 17.1008C38.9162 16.9566 38.8786 16.8155 38.8125 16.6872C37.1858 11.9953 32.9568 7.8855 28.25 6.06223C28.0914 5.99906 27.9193 5.97755 27.75 5.99973ZM26.7187 10.9997C26.504 11.032 26.3056 11.1332 26.1536 11.2882C26.0015 11.4432 25.9039 11.6434 25.8757 11.8587C25.8475 12.074 25.8901 12.2926 25.9971 12.4815C26.104 12.6705 26.2696 12.8194 26.4687 12.906C28.4257 13.8102 30.9343 16.1388 31.9687 18.406C32.011 18.5408 32.0812 18.6652 32.175 18.7708C32.2687 18.8765 32.3838 18.9612 32.5126 19.0192C32.6415 19.0772 32.7811 19.1072 32.9224 19.1073C33.0637 19.1074 33.2034 19.0776 33.3323 19.0198C33.4612 18.962 33.5764 18.8776 33.6703 18.772C33.7642 18.6665 33.8347 18.5422 33.8771 18.4075C33.9195 18.2727 33.9329 18.1305 33.9164 17.9902C33.8999 17.8499 33.8538 17.7147 33.7812 17.5935C32.4777 14.7366 29.8095 12.2472 27.3125 11.0935C27.1289 11.0021 26.9216 10.9694 26.7187 10.9997ZM16.7187 12.9997C16.4547 13.0427 16.2175 13.188 16.0625 13.406L14.0625 16.2185C13.8465 16.5215 13.831 16.9177 14 17.2497C14.009 17.2687 14.926 19.1555 14.875 20.9685C14.844 22.0865 14.2695 23.325 13.3125 24.281L5.1875 32.281C5.1525 32.316 5.12375 32.367 5.09375 32.406C4.30898 33.4475 4.01487 37.2968 3.90625 39.6872L0.1875 43.406L1.59375 44.8122L5.40625 40.9997C11.3161 40.8508 12.3533 40.056 12.6562 39.656L20.7187 31.7185C21.7217 30.7165 22.9505 30.0507 23.9375 29.9997C25.6775 29.9107 27.342 30.8557 27.375 30.8747C27.705 31.0667 28.1185 31.0565 28.4375 30.8435L31.4375 28.8435C31.6585 28.6965 31.823 28.4482 31.875 28.1872C31.909 28.0112 32.6382 23.8255 26.9062 18.0935C21.1882 12.3765 16.9017 12.9717 16.7187 12.9997ZM17.875 25.9997C18.1307 25.9997 18.3982 26.0855 18.5937 26.281C18.9847 26.672 18.9847 27.3275 18.5937 27.7185L16.5937 29.7185C16.3987 29.9135 16.131 29.9997 15.875 29.9997C15.619 29.9997 15.3825 29.9135 15.1875 29.7185C14.7965 29.3275 14.7965 28.672 15.1875 28.281L17.1875 26.281C17.383 26.0855 17.6192 25.9997 17.875 25.9997Z" fill="#00FF66" fill-opacity="0.8"/>
</svg>
