<svg width="38" height="38" viewBox="0 0 38 38" fill="none" xmlns="http://www.w3.org/2000/svg">
<path d="M4.41667 16.9167H12.75C15.0417 16.9167 16.9167 15.0417 16.9167 12.75V4.41667C16.9167 2.125 15.0417 0.25 12.75 0.25H4.41667C2.125 0.25 0.25 2.125 0.25 4.41667V12.75C0.25 15.0417 2.125 16.9167 4.41667 16.9167Z" fill="#00FF66" fill-opacity="0.8"/>
<path d="M4.41667 37.7497H12.75C15.0417 37.7497 16.9167 35.8747 16.9167 33.583V25.2497C16.9167 22.958 15.0417 21.083 12.75 21.083H4.41667C2.125 21.083 0.25 22.958 0.25 25.2497V33.583C0.25 35.8747 2.125 37.7497 4.41667 37.7497Z" fill="#00FF66" fill-opacity="0.8"/>
<path d="M21.084 4.41667V12.75C21.084 15.0417 22.959 16.9167 25.2507 16.9167H33.584C35.8757 16.9167 37.7507 15.0417 37.7507 12.75V4.41667C37.7507 2.125 35.8757 0.25 33.584 0.25H25.2507C22.959 0.25 21.084 2.125 21.084 4.41667Z" fill="#00FF66" fill-opacity="0.8"/>
<path d="M25.2507 37.7497H33.584C35.8757 37.7497 37.7507 35.8747 37.7507 33.583V25.2497C37.7507 22.958 35.8757 21.083 33.584 21.083H25.2507C22.959 21.083 21.084 22.958 21.084 25.2497V33.583C21.084 35.8747 22.959 37.7497 25.2507 37.7497Z" fill="#00FF66" fill-opacity="0.8"/>
</svg>
